<?xml version="1.0" encoding="UTF-8"?>
<svg version="1.1" xmlns="http://www.w3.org/2000/svg" width="512" height="512">
<path d="M0 0 C9.89037244 7.12371884 15.58826517 16.10975888 18.11328125 27.9921875 C19.84747314 40.28918453 16.2699734 51.9125835 8.8671875 61.77734375 C4.9504076 66.0750367 0.94667256 68.37734692 -4.29296875 70.8671875 C-8.91415866 73.07822625 -8.91415866 73.07822625 -11.6953125 77.15234375 C-12.17688378 79.65159323 -12.44354115 81.95029117 -12.41796875 84.4921875 C-11.68320312 84.605625 -10.9484375 84.7190625 -10.19140625 84.8359375 C-0.96280113 87.01960744 4.89174151 94.58247084 9.6796875 102.25 C13.3072485 109.77508002 12.78896255 120.77212283 10.75 128.74609375 C9.39415738 132.23472252 8.23998591 134.83423284 5.58203125 137.4921875 C5.89743494 140.98313294 7.42423867 142.63119193 9.83203125 145.0546875 C19.13229471 155.25435916 20.30352739 167.12304554 19.75683594 180.30859375 C18.80964323 192.14056518 10.99984435 200.68058819 2.4765625 208.1796875 C0.49243334 209.55425945 -1.05781953 210.07353575 -3.41796875 210.4921875 C1.80549996 218.00295151 7.45818321 225.05756919 13.30297852 232.08740234 C17.67864139 237.36155023 21.87847521 242.73275808 26.02734375 248.1875 C28.94788573 251.99740608 31.98286018 255.71214649 35.01953125 259.4296875 C40.96403473 266.71554601 46.84453437 274.04191247 52.58203125 281.4921875 C53.04883301 282.09385742 53.51563477 282.69552734 53.99658203 283.31542969 C73.86867547 309.0577463 81.62400315 335.57174305 78.29345703 368.33056641 C75.21932666 389.40383323 64.23959786 408.36973538 49.58203125 423.4921875 C48.793125 424.39130859 48.793125 424.39130859 47.98828125 425.30859375 C33.82460446 440.88141186 9.4571997 451.42538662 -11.38378906 452.66918945 C-45.08483147 453.33274151 -71.10691972 446.13895175 -95.98046875 422.3046875 C-114.70082171 403.13546853 -124.06559934 378.03187487 -124.66796875 351.4921875 C-124.10366813 326.62976589 -115.98405627 304.7789496 -100.41796875 285.4921875 C-99.56278967 284.39763773 -98.70999791 283.30121931 -97.859375 282.203125 C-92.42730579 275.20551171 -86.8580264 268.32302062 -81.25927734 261.45849609 C-76.35067392 255.43158729 -71.54064133 249.33134878 -66.75634766 243.20556641 C-64.50151976 240.31895893 -62.241729 237.4362577 -59.98046875 234.5546875 C-59.53638672 233.98830566 -59.09230469 233.42192383 -58.63476562 232.83837891 C-56.1384395 229.66066678 -53.62499797 226.49763747 -51.09375 223.34765625 C-50.54323975 222.66243896 -49.99272949 221.97722168 -49.42553711 221.27124023 C-48.3564661 219.94253541 -47.28572703 218.61517057 -46.21313477 217.28930664 C-43.56360951 214.05886801 -43.56360951 214.05886801 -41.41796875 210.4921875 C-42.07796875 210.3065625 -42.73796875 210.1209375 -43.41796875 209.9296875 C-52.39450797 205.62842912 -59.07679475 197.3567291 -62.73046875 188.2421875 C-66.71246807 176.17956194 -66.07164457 164.7242874 -60.73046875 153.2421875 C-58.02181555 148.10577846 -54.85341283 144.21901034 -50.41796875 140.4921875 C-51.38457981 138.03881594 -52.36645908 135.60609191 -53.453125 133.203125 C-58.05994915 122.7282929 -58.46903886 113.27539957 -54.41796875 102.4921875 C-50.21735642 94.21786957 -44.01228648 88.08980887 -35.41796875 84.4921875 C-34.75796875 84.4921875 -34.09796875 84.4921875 -33.41796875 84.4921875 C-33.47984375 83.2134375 -33.54171875 81.9346875 -33.60546875 80.6171875 C-33.56329744 71.66281331 -30.77543051 63.89260509 -24.41796875 57.4921875 C-21.32142592 55.13201766 -18.03124907 53.26882865 -14.52734375 51.58203125 C-9.35634651 48.98529133 -6.40326974 45.87961223 -4.41796875 40.4921875 C-3.4469558 34.6187433 -3.51952077 29.26483905 -6.48046875 23.9921875 C-10.02525726 19.18924871 -14.03964133 17.15283401 -19.79296875 15.5546875 C-25.67328346 15.45330276 -30.34721575 17.18671278 -35.29296875 20.3046875 C-40.11342017 25.2669169 -41.14490172 31.10457315 -42.4765625 37.6875 C-43.56130607 40.91922567 -44.79273388 42.35548318 -47.41796875 44.4921875 C-51.25609101 45.77156159 -53.19364089 45.55682434 -57.10546875 44.4296875 C-61.166068 42.05462002 -62.14605982 41.02336306 -63.41796875 36.4921875 C-63.9441571 25.39290199 -60.37056182 15.55892585 -53.23046875 7.1171875 C-39.42952341 -7.16598721 -17.09340212 -10.6592136 0 0 Z M-33.73046875 109.3671875 C-35.98544868 113.54307626 -36.79913957 115.82889667 -35.73046875 120.4921875 C-33.94037874 124.5838218 -32.04980302 127.4664631 -28.23046875 129.8671875 C-22.88522419 131.05501963 -18.15540376 130.56422187 -13.48046875 127.6796875 C-9.64780774 123.614744 -8.9617682 120.20280832 -9.10546875 114.7421875 C-9.60389872 111.15349173 -11.01482705 109.14829149 -13.41796875 106.4921875 C-20.82289699 101.66288647 -28.07675131 102.33824149 -33.73046875 109.3671875 Z M-40.19140625 160.515625 C-43.49164914 165.8338508 -44.89621538 170.43520771 -43.85546875 176.6796875 C-42.02335661 183.85268411 -38.25513651 188.20365608 -32.41796875 192.4921875 C-27.97683153 195.01283295 -23.39798842 195.03312067 -18.41796875 194.4921875 C-11.45983215 192.3327658 -6.25296571 188.51105347 -2.48046875 182.3046875 C-0.68351837 175.85680673 -0.20701198 169.41996523 -2.98046875 163.1796875 C-5.95019362 158.06924223 -10.03529687 154.60748072 -15.35546875 152.1171875 C-25.23327634 150.1013084 -33.90660346 152.26462692 -40.19140625 160.515625 Z M-23.41796875 222.4921875 C-25.10264139 224.4561046 -26.67306641 226.43027454 -28.23046875 228.4921875 C-29.22524715 229.78486746 -30.2213958 231.07649383 -31.21875 232.3671875 C-32.00306396 233.38425781 -32.00306396 233.38425781 -32.80322266 234.421875 C-35.45509203 237.82191315 -38.18737797 241.15529577 -40.91796875 244.4921875 C-46.84369257 251.7546261 -52.65068786 259.10365049 -58.41796875 266.4921875 C-60.20786427 268.78524545 -61.99931245 271.07706987 -63.79296875 273.3671875 C-64.24099854 273.93969238 -64.68902832 274.51219727 -65.15063477 275.10205078 C-68.15626112 278.92777996 -71.21999994 282.70109559 -74.31079102 286.45825195 C-88.84263307 304.16036866 -102.3567285 322.61428187 -103.41796875 346.4921875 C-103.46953125 347.20890625 -103.52109375 347.925625 -103.57421875 348.6640625 C-104.39384456 369.01810351 -96.67069455 389.86075231 -82.98046875 404.8046875 C-81.15420102 406.73178267 -79.29456443 408.61285626 -77.41796875 410.4921875 C-76.76054687 411.16121094 -76.103125 411.83023438 -75.42578125 412.51953125 C-59.28396911 427.79536634 -38.05010987 432.03732625 -16.59375 431.765625 C4.16558254 431.12668165 23.37897243 420.86301617 37.58203125 405.890625 C54.04492967 386.14800853 59.21651701 364.88661935 57.58203125 339.4921875 C55.66044597 322.49752196 46.87114611 308.12533485 36.10449219 295.30908203 C33.37127491 292.04727912 30.70157711 288.73357153 28.01953125 285.4296875 C27.46821533 284.75421875 26.91689941 284.07875 26.34887695 283.3828125 C22.18283347 278.27058706 18.16221211 273.06505803 14.1640625 267.8203125 C11.27555371 264.06513837 8.27195839 260.40643041 5.26953125 256.7421875 C0.64327931 251.09069888 -3.86758391 245.36484741 -8.29296875 239.5546875 C-9.10822021 238.48504761 -9.10822021 238.48504761 -9.93994141 237.39379883 C-12.2096528 234.41055961 -14.47085598 231.42161133 -16.71875 228.421875 C-17.65267578 227.18824219 -17.65267578 227.18824219 -18.60546875 225.9296875 C-19.11464844 225.24777344 -19.62382812 224.56585938 -20.1484375 223.86328125 C-20.56738281 223.41082031 -20.98632812 222.95835937 -21.41796875 222.4921875 C-22.07796875 222.4921875 -22.73796875 222.4921875 -23.41796875 222.4921875 Z " fill="#000000" transform="translate(406.41796875,5.5078125)"/>
<path d="M0 0 C9.67106736 7.10919521 15.80109968 15.58320122 18.16796875 27.56640625 C19.66408857 38.84128864 17.21185869 50.10485591 10.546875 59.421875 C5.61851476 65.54221074 -0.16479528 69.31226706 -7.01171875 73.07421875 C-9.33082946 74.20713396 -9.33082946 74.20713396 -10.453125 75.421875 C-10.68505365 76.93656948 -10.86527738 78.45942062 -11.015625 79.984375 C-11.09941406 80.81066406 -11.18320313 81.63695312 -11.26953125 82.48828125 C-11.33011719 83.12636719 -11.39070313 83.76445312 -11.453125 84.421875 C-10.628125 84.628125 -9.803125 84.834375 -8.953125 85.046875 C-0.57100423 88.33985102 5.38544214 94.40774295 9.546875 102.32421875 C13.65729599 111.9876604 13.02833564 121.67378521 9.546875 131.421875 C8.81932757 132.77931249 8.05363925 134.11774008 7.234375 135.421875 C6.6775 136.411875 6.120625 137.401875 5.546875 138.421875 C6.60305373 141.34932691 8.23612586 143.31718329 10.359375 145.546875 C18.06544472 154.40226074 21.02220509 164.80548779 20.421875 176.421875 C18.87905295 190.11220397 12.71353767 198.87421777 2.6953125 207.85546875 C0.5724231 209.40324811 -0.88550024 210.00942849 -3.453125 210.421875 C2.27971523 217.94305699 8.09136962 225.39211898 14.01489258 232.76416016 C17.36800717 236.93965616 20.68687304 241.13986822 23.984375 245.359375 C27.90165492 250.36970124 31.89388663 255.31274615 35.921875 260.234375 C42.15415408 267.8625361 48.15470107 275.65215575 54.08935547 283.51318359 C55.39824942 285.22724271 56.73123121 286.91657669 58.08203125 288.59765625 C71.44057175 305.53069472 77.88966869 325.08534378 79.546875 346.421875 C79.6190625 347.33839844 79.69125 348.25492187 79.765625 349.19921875 C79.98935184 355.24916532 79.12946303 361.14154876 78.234375 367.109375 C78.11682861 367.90577393 77.99928223 368.70217285 77.87817383 369.52270508 C75.77655539 382.43993688 75.77655539 382.43993688 71.296875 386.421875 C66.75398647 388.07383447 63.17097195 388.14369587 58.734375 386.171875 C56.34910438 384.2636585 55.43497824 383.32839469 54.546875 380.421875 C54.23925367 376.49970306 54.55733129 373.37865566 55.484375 369.546875 C60.24612833 349.4378879 56.65453258 327.95401206 46.3203125 310.14453125 C40.39275066 301.04428763 33.23033881 292.76257025 26.36499023 284.36450195 C23.021218 280.26718974 19.75323401 276.12761864 16.546875 271.921875 C12.82026606 267.03560817 8.99644763 262.24382396 5.109375 257.484375 C-3.40273484 247.05741444 -11.73509217 236.52232863 -19.67578125 225.65234375 C-21.26022239 223.34299075 -21.26022239 223.34299075 -23.453125 222.421875 C-23.79923828 223.21851563 -23.79923828 223.21851563 -24.15234375 224.03125 C-25.86371344 227.17646998 -28.0373968 229.88502057 -30.265625 232.671875 C-30.74773437 233.2803125 -31.22984375 233.88875 -31.7265625 234.515625 C-35.97699006 239.8639891 -40.29248006 245.15947818 -44.61010742 250.45361328 C-49.97715907 257.04294355 -55.22407141 263.72286784 -60.453125 270.421875 C-62.24302055 272.71493298 -64.03466897 275.00660064 -65.828125 277.296875 C-66.49908203 278.15563232 -66.49908203 278.15563232 -67.18359375 279.03173828 C-69.65365051 282.17966118 -72.16051311 285.29038908 -74.71875 288.3671875 C-91.30669057 308.3388459 -104.26295287 329.30735601 -102.20703125 356.421875 C-100.35782048 375.24711255 -93.42874856 390.85117848 -81.453125 405.421875 C-80.92332031 406.06769531 -80.39351562 406.71351563 -79.84765625 407.37890625 C-68.13512206 420.23559545 -49.00981429 429.44770827 -31.65136719 430.609375 C-28.60337997 430.68940092 -25.56451183 430.69489995 -22.515625 430.671875 C-20.98518555 430.68347656 -20.98518555 430.68347656 -19.42382812 430.6953125 C-13.63377742 430.68053254 -8.28108367 430.20053013 -2.63769531 428.88720703 C2.2395214 427.84831845 6.12748673 427.51588248 10.484375 430.296875 C13.25756209 433.15409806 13.75191398 434.84488246 13.921875 438.734375 C13.85025405 442.16667131 13.62673102 443.29520683 11.734375 446.296875 C-2.66002633 455.89314255 -27.80783768 454.36249665 -44.03515625 451.34570312 C-63.36586002 447.00935606 -80.29234417 437.14733345 -94.453125 423.421875 C-95.05253906 422.8959375 -95.65195313 422.37 -96.26953125 421.828125 C-114.77334939 404.99866627 -123.16677843 378.29566799 -124.39404297 354.06738281 C-125.20307052 317.84166998 -106.17618691 292.21902366 -84.29516602 265.38891602 C-78.92840923 258.80001861 -73.68185726 252.12047051 -68.453125 245.421875 C-66.66322949 243.12881706 -64.87179111 240.83698494 -63.078125 238.546875 C-62.6351709 237.980896 -62.1922168 237.41491699 -61.73583984 236.83178711 C-59.18160982 233.58090748 -56.5950812 230.35952833 -53.9765625 227.16015625 C-53.39052246 226.4439209 -52.80448242 225.72768555 -52.20068359 224.98974609 C-51.0634702 223.60341974 -49.92331942 222.21949601 -48.77978516 220.83837891 C-46.03564565 217.4959507 -43.55415708 214.2227004 -41.453125 210.421875 C-42.113125 210.23625 -42.773125 210.050625 -43.453125 209.859375 C-52.55841145 205.49642524 -59.52620548 196.63147293 -63.390625 187.421875 C-66.47373364 176.59245589 -65.72247821 163.34636233 -60.453125 153.421875 C-58.0180614 149.21585605 -55.55023045 145.46271864 -52.015625 142.109375 C-51.5 141.5525 -50.984375 140.995625 -50.453125 140.421875 C-50.89938075 137.44264646 -52.06403503 135.00988124 -53.453125 132.359375 C-57.58835315 124.43858873 -57.86216522 114.27543064 -55.76953125 105.58203125 C-54.8290563 103.36157379 -53.77368277 101.43767969 -52.453125 99.421875 C-52.02902344 98.72835937 -51.60492188 98.03484375 -51.16796875 97.3203125 C-47.21151728 91.43522869 -41.70801887 86.43323515 -34.67578125 84.76171875 C-33.57556641 84.59349609 -33.57556641 84.59349609 -32.453125 84.421875 C-32.49953125 83.5040625 -32.5459375 82.58625 -32.59375 81.640625 C-32.86858277 72.29631071 -32.23410109 66.68759162 -26.015625 59.671875 C-25.17 58.929375 -24.324375 58.186875 -23.453125 57.421875 C-22.3084375 56.4009375 -22.3084375 56.4009375 -21.140625 55.359375 C-18.88165177 53.7308129 -16.95655284 52.68821265 -14.453125 51.546875 C-9.04793944 48.92586993 -6.37754275 45.69090037 -4.078125 40.046875 C-3.00333741 33.81310696 -3.63855985 28.42263267 -7.11328125 23.03125 C-10.49878453 18.96469795 -14.12573114 16.80664576 -19.359375 15.94140625 C-25.35269506 15.66141529 -29.96187445 16.25645187 -34.8359375 19.88671875 C-39.32855228 24.15144727 -40.50633634 28.11975101 -41.390625 34.046875 C-41.99082036 37.84637257 -42.39099162 39.33557864 -44.703125 42.546875 C-47.88577197 44.71686157 -49.59826616 45.421875 -53.453125 45.421875 C-57.78990568 44.24579888 -59.84569701 43.2501859 -62.515625 39.609375 C-65.03611244 32.2201199 -62.47471153 22.95908718 -59.328125 16.109375 C-54.81552449 8.06344798 -48.7692894 1.50785173 -40.453125 -2.578125 C-39.83566406 -2.89652344 -39.21820313 -3.21492188 -38.58203125 -3.54296875 C-26.68597593 -8.57502334 -10.66287915 -6.8595592 0 0 Z M-34.390625 109.609375 C-35.9103661 113.63221908 -36.11937176 117.17735912 -35.453125 121.421875 C-33.66726157 125.13097597 -32.09089405 126.96208801 -28.765625 129.359375 C-24.37906223 130.7663857 -20.88314243 130.63972112 -16.453125 129.421875 C-12.45634128 126.87073645 -10.03667296 124.35207211 -8.640625 119.734375 C-8.32883486 114.22608255 -9.96766793 110.12578163 -13.578125 105.984375 C-21.49998439 101.67901664 -28.36849054 102.81019093 -34.390625 109.609375 Z M-40.26171875 160.54296875 C-43.89834514 166.27810742 -44.18806768 171.79808781 -43.453125 178.421875 C-41.67015309 184.65693844 -37.77962819 188.87087287 -32.453125 192.421875 C-27.06877562 194.99699862 -21.0428586 195.51383404 -15.30859375 193.76953125 C-8.58600546 190.77457318 -4.20171133 185.90282419 -1.453125 179.109375 C0.41417331 172.63460098 -1.12211872 166.94127975 -4.203125 161.109375 C-9.45828817 154.83237455 -14.12725757 151.84737016 -22.265625 151.046875 C-29.86678005 151.29394887 -35.54817104 154.75510817 -40.26171875 160.54296875 Z " fill="#000000" transform="translate(150.453125,59.578125)"/>
<path d="M0 0 C7.40863876 2.11042897 11.80773212 10.05256739 16.16796875 15.87890625 C19.09736612 19.77708896 22.17843099 23.54148375 25.2734375 27.30859375 C43.53499023 49.66414189 57.68801669 67.3383428 54.9609375 97.55859375 C52.73937493 112.43821845 43.04225625 125.49760469 31.2109375 134.37109375 C17.2966162 143.59641963 1.10859506 145.54462648 -15.17822266 143.25830078 C-29.17409394 140.35712334 -41.45163753 131.0732653 -49.8515625 119.74609375 C-59.05572189 105.70106751 -61.30428196 90.95681287 -59.0390625 74.55859375 C-55.39176606 58.97633225 -45.75828566 47.78877709 -35.890625 35.69921875 C-35.36098145 35.05009521 -34.83133789 34.40097168 -34.28564453 33.73217773 C-33.20206998 32.40503546 -32.11710143 31.07903017 -31.03076172 29.75415039 C-28.14025344 26.21145781 -25.31665685 22.63244055 -22.5703125 18.9765625 C-21.99974121 18.21770752 -21.42916992 17.45885254 -20.84130859 16.67700195 C-19.75883155 15.22912982 -18.68311003 13.7761707 -17.61572266 12.31713867 C-7.86265242 -0.73806507 -7.86265242 -0.73806507 0 0 Z M-3.0390625 28.55859375 C-4.36716374 29.8413535 -4.36716374 29.8413535 -5.69140625 31.56640625 C-6.21516846 32.21649658 -6.73893066 32.86658691 -7.27856445 33.53637695 C-7.83890381 34.2449585 -8.39924316 34.95354004 -8.9765625 35.68359375 C-9.55559326 36.40699951 -10.13462402 37.13040527 -10.73120117 37.87573242 C-12.50684089 40.09837954 -14.27348741 42.32794764 -16.0390625 44.55859375 C-17.04670949 45.82304858 -18.05451159 47.08737983 -19.0625 48.3515625 C-21.74925675 51.7325872 -24.40133396 55.13923882 -27.0390625 58.55859375 C-27.81636719 59.56019531 -28.59367187 60.56179688 -29.39453125 61.59375 C-36.75371196 71.33896745 -40.15258898 80.20023291 -38.671875 92.64453125 C-36.5188604 102.98431743 -30.79313945 111.5916054 -22.0390625 117.55859375 C-12.38242707 123.20373213 -1.47610873 124.44320887 9.3984375 121.6875 C20.16523225 117.49888725 26.93514759 110.91428188 31.9609375 100.55859375 C35.25618151 92.3994793 35.47633936 81.55846258 32.4609375 73.24609375 C27.90361992 63.73722696 20.55566082 55.7318712 13.90527344 47.63818359 C9.8098578 42.64846291 5.85269236 37.5709648 2.03173828 32.36767578 C1.05365711 31.06259433 0.01297812 29.80482443 -1.0390625 28.55859375 C-1.6990625 28.55859375 -2.3590625 28.55859375 -3.0390625 28.55859375 Z " fill="#000000" transform="translate(386.0390625,270.44140625)"/>
<path d="M0 0 C6.53822545 3.70063561 10.84086104 10.45641698 15.2421875 16.35546875 C18.15537396 20.24570288 21.22794097 23.99522489 24.3125 27.75 C26.54801004 30.49489194 28.77571735 33.24600453 31 36 C31.57250488 36.70737305 32.14500977 37.41474609 32.73486328 38.14355469 C46.29341388 55.00507336 55.73785883 71.42546581 53.63671875 93.8828125 C50.89065507 110.02225424 43.05957047 123.14273663 30.234375 133.16015625 C16.0283107 142.71880808 -0.50906463 145.38871629 -17.31933594 142.61767578 C-32.64472817 139.0148769 -44.75294976 129.81627303 -53.25 116.8125 C-61.37485013 102.80193166 -63.59075347 86.998162 -60.3046875 71.046875 C-55.56338686 54.23318702 -42.59842199 41.14873001 -31.78051758 27.90966797 C-28.31879089 23.66219494 -24.94175292 19.3613793 -21.625 15 C-8.79955196 -1.79423489 -8.79955196 -1.79423489 0 0 Z M-5 28 C-6.34452196 29.2991481 -6.34452196 29.2991481 -7.6875 31.04296875 C-8.21641846 31.69821533 -8.74533691 32.35346191 -9.2902832 33.02856445 C-9.85448975 33.74101318 -10.41869629 34.45346191 -11 35.1875 C-11.58160889 35.91348389 -12.16321777 36.63946777 -12.76245117 37.38745117 C-17.929924 43.85866046 -23.00674258 50.39353633 -28 57 C-28.74378906 57.95648438 -29.48757812 58.91296875 -30.25390625 59.8984375 C-38.6422845 70.92845973 -41.3579008 80.23900534 -40 94 C-37.93447043 103.17877343 -32.22350633 111.01229557 -24.5625 116.375 C-23.05929053 117.27994216 -21.53910006 118.15754523 -20 119 C-19.40960938 119.3403125 -18.81921875 119.680625 -18.2109375 120.03125 C-10.88768831 123.51543904 -0.77271496 123.10862277 6.9765625 121.30859375 C17.1266745 117.55336655 24.85349816 110.51838245 30.06640625 101.06640625 C34.24140326 91.36508469 33.67751224 80.7249768 30 71 C28.34285387 67.69729617 26.28128233 64.90100075 24 62 C23.58041016 61.46536133 23.16082031 60.93072266 22.72851562 60.37988281 C20.23404582 57.21221927 17.71364677 54.06657206 15.17578125 50.93359375 C12.07968745 47.10978965 9.03312605 43.24884916 6 39.375 C4.33499207 37.24868072 2.66827736 35.12376098 1 33 C0.278125 32.04351562 -0.44375 31.08703125 -1.1875 30.1015625 C-1.785625 29.40804688 -2.38375 28.71453125 -3 28 C-3.66 28 -4.32 28 -5 28 Z " fill="#000000" transform="translate(132,325)"/>
<path d="M0 0 C3.51152485 2.80921988 4.04921307 4.68321511 4.625 9.125 C4.05235997 13.86973172 2.76941991 15.61582008 -0.8125 18.75 C-4.77675016 20.18064673 -7.74550423 20.20050933 -11.625 18.5625 C-15.22410223 15.58038672 -16.66664577 14.08699707 -17.1875 9.3125 C-16.78882857 5.52512139 -16.1747451 3.70280637 -13.8125 0.75 C-9.65194818 -2.37041386 -4.59375224 -2.04166766 0 0 Z " fill="#000000" transform="translate(198.8125,466.25)"/>
</svg>
