<?xml version="1.0" encoding="UTF-8"?>
<svg version="1.1" xmlns="http://www.w3.org/2000/svg" width="512" height="512">
<path d="M0 0 C1.53285645 -0.01270432 1.53285645 -0.01270432 3.09667969 -0.02566528 C6.46708705 -0.04902019 9.83703745 -0.05005773 13.20751953 -0.04882812 C15.55632713 -0.05593081 17.90513299 -0.06362996 20.25393677 -0.07189941 C25.1748741 -0.08534096 30.09565101 -0.08691448 35.01660156 -0.08105469 C41.31374211 -0.07516039 47.61011121 -0.10574157 53.90710258 -0.14617157 C58.7576612 -0.17205774 63.60803433 -0.17492507 68.4586525 -0.17127991 C70.77982649 -0.17297041 73.10100911 -0.18260616 75.42211533 -0.20042419 C78.67255596 -0.22262996 81.92143839 -0.21290227 85.171875 -0.1953125 C86.60135971 -0.21520737 86.60135971 -0.21520737 88.0597229 -0.23550415 C97.30849891 -0.11957416 102.63827721 4.09426477 109.21533203 10.29492188 C110.15763672 11.17148437 111.09994141 12.04804688 112.07080078 12.95117188 C112.94349609 13.76585937 113.81619141 14.58054687 114.71533203 15.41992188 C118.49821684 18.80891102 122.35394434 22.11315898 126.21533203 25.41210938 C126.84205811 25.94787598 127.46878418 26.48364258 128.11450195 27.03564453 C129.36874161 28.10695756 130.62407506 29.17699165 131.88061523 30.24560547 C132.46157959 30.74141113 133.04254395 31.2372168 133.64111328 31.74804688 C134.42095581 32.41175293 134.42095581 32.41175293 135.21655273 33.08886719 C135.7111499 33.52811523 136.20574707 33.96736328 136.71533203 34.41992188 C137.58387817 35.02852051 137.58387817 35.02852051 138.4699707 35.64941406 C139.71533203 37.41992187 139.71533203 37.41992187 139.65597534 40.62519836 C138.45852813 45.45591477 136.41875061 47.5290118 132.91040039 50.90600586 C132.30553299 51.51174942 131.70066559 52.11749298 131.07746887 52.74159241 C129.08393372 54.73096299 127.07003094 56.69826093 125.05517578 58.66601562 C123.66524408 60.04475133 122.27663529 61.42482185 120.88929749 62.8061676 C117.24124228 66.43135706 113.57552838 70.03816445 109.90582275 73.64141846 C106.16155538 77.32421626 102.43429826 81.02414166 98.70556641 84.72265625 C91.39202131 91.97192829 84.05970359 99.20189175 76.71533203 106.41992188 C78.1758496 106.42212172 78.1758496 106.42212172 79.66587257 106.424366 C103.35174481 106.46095225 127.03747555 106.52039039 150.72323036 106.60382462 C162.17746848 106.64364304 173.63163762 106.67602131 185.0859375 106.69091797 C195.06888385 106.70391993 205.0516786 106.7308474 215.03453958 106.77453494 C220.32097997 106.79718243 225.60723314 106.81283058 230.89372635 106.81180573 C235.86946199 106.81106106 240.84478324 106.82893404 245.82041168 106.86108971 C247.6465122 106.8696089 249.4726591 106.87132496 251.2987709 106.86572456 C253.79322231 106.85909344 256.28635186 106.87698287 258.78067017 106.90093994 C259.50247329 106.89317952 260.22427642 106.88541911 260.96795237 106.87742352 C266.89637639 106.97814633 270.4254159 109.15120867 274.56103516 113.24853516 C276.96448986 117.76975473 276.23286527 123.20344351 276.21630859 128.20947266 C276.21533792 130.28234562 276.2569362 132.35149103 276.30126953 134.42382812 C276.32314615 145.5918401 276.32314615 145.5918401 273.49658203 149.24023438 C268.29707298 153.31513051 263.87218597 153.69523752 257.40283203 153.54492188 C256.66226562 153.53589844 255.92169922 153.526875 255.15869141 153.51757812 C253.34409736 153.49416401 251.52967132 153.45829803 249.71533203 153.41992188 C249.71609147 153.99470618 249.71685091 154.56949049 249.71763337 155.1616925 C249.76235118 189.19824581 249.79668573 223.23479247 249.81746269 257.27136873 C249.81996422 261.3545779 249.82255286 265.43778701 249.82519531 269.52099609 C249.82598224 270.74037999 249.82598224 270.74037999 249.82678507 271.9843979 C249.83549706 285.16183692 249.85127138 298.33925856 249.86963762 311.51668726 C249.88831463 325.02938412 249.89944409 338.54207184 249.90350902 352.05478108 C249.90625866 360.39855842 249.91495539 368.74228663 249.93116497 377.08604886 C249.94170473 382.80107219 249.94493952 388.51606998 249.94233479 394.23110233 C249.94104878 397.53257313 249.94415401 400.83393921 249.95374298 404.13539886 C249.96361549 407.7080829 249.96132919 411.28055252 249.95584106 414.85324097 C249.96457959 416.43200935 249.96457959 416.43200935 249.97349465 418.04267204 C249.96951255 418.99413773 249.96553046 419.94560343 249.96142769 420.92590141 C249.96218713 421.75141341 249.96294657 422.57692541 249.96372902 423.42745292 C249.71533203 425.41992188 249.71533203 425.41992188 247.71533203 427.41992188 C242.47088558 427.97784171 242.47088558 427.97784171 240.04699725 426.18798131 C238.33729987 423.91800643 238.34227227 422.64471895 238.34618855 419.81847095 C238.34021593 418.86819963 238.33424332 417.91792831 238.32808971 416.93886089 C238.33682771 415.8934504 238.3455657 414.84803991 238.35456848 413.77095032 C238.35200043 412.66442612 238.34943237 411.55790192 238.3467865 410.41784668 C238.34180056 406.67921694 238.35842418 402.94098579 238.37475586 399.20239258 C238.37734091 396.4886892 238.37540861 393.77499337 238.37366009 391.06128979 C238.37206319 384.51475303 238.38593367 377.96833942 238.40516407 371.42183433 C238.42673725 363.8516452 238.42914684 356.28153038 238.43151855 348.71130371 C238.44727906 328.71832353 238.48916227 308.72537087 238.52783203 288.73242188 C238.58970703 244.07929688 238.65158203 199.42617187 238.71533203 153.41992188 C109.35533203 153.41992188 -20.00466797 153.41992188 -153.28466797 153.41992188 C-153.28466797 163.31992188 -153.28466797 173.21992188 -153.28466797 183.41992188 C-153.94466797 184.40992188 -154.60466797 185.39992187 -155.28466797 186.41992188 C-158.78466797 186.73242188 -158.78466797 186.73242188 -162.28466797 186.41992188 C-164.28466797 184.41992188 -164.28466797 184.41992188 -164.51171875 181.25537109 C-164.51140186 179.91174224 -164.50008978 178.56808777 -164.47998047 177.22460938 C-164.47715057 176.51716583 -164.47432068 175.80972229 -164.47140503 175.08084106 C-164.46019934 172.81869678 -164.43509476 170.55694673 -164.40966797 168.29492188 C-164.39963864 166.7623755 -164.39051271 165.22982294 -164.38232422 163.69726562 C-164.36025883 159.93799887 -164.32572692 156.17902724 -164.28466797 152.41992188 C-164.94998535 152.44086914 -165.61530273 152.46181641 -166.30078125 152.48339844 C-169.33692099 152.56692797 -172.3728184 152.61869791 -175.40966797 152.66992188 C-176.45638672 152.7034375 -177.50310547 152.73695313 -178.58154297 152.77148438 C-183.23449087 152.83038245 -186.54433348 152.74859785 -190.83935547 150.84179688 C-195.44737917 146.27793954 -196.40681766 142.2308296 -196.68310547 135.95117188 C-196.69101012 133.94075557 -196.68283402 131.93022025 -196.65966797 129.91992188 C-196.67126953 128.91316406 -196.68287109 127.90640625 -196.69482422 126.86914062 C-196.67166915 120.98003405 -196.38604366 116.49727955 -193.28466797 111.41992188 C-188.65873475 107.58686003 -184.92227633 106.84045523 -179.08425903 106.90093994 C-178.27467267 106.89343869 -177.46508631 106.88593744 -176.63096702 106.87820888 C-173.92689243 106.85796089 -171.22365866 106.86602856 -168.51953125 106.87402344 C-166.5777758 106.86528685 -164.63602754 106.85480077 -162.69429016 106.84269714 C-157.42822723 106.81482714 -152.16239911 106.81143269 -146.89627314 106.81241703 C-141.39090873 106.80928881 -135.88565022 106.78367246 -130.38034058 106.76043701 C-119.95762262 106.71986661 -109.53496725 106.69953382 -99.1121825 106.68646312 C-87.24522384 106.67059663 -75.37837173 106.63218244 -63.51147485 106.59186983 C-39.10257498 106.50945661 -14.69367803 106.45537335 9.71533203 106.41992188 C6.71961879 103.39481229 3.71798398 100.37564313 0.71533203 97.35742188 C-0.12384766 96.50986328 -0.96302734 95.66230469 -1.82763672 94.7890625 C-6.28501417 90.31440839 -10.80137076 85.99163241 -15.59355354 81.87710571 C-17.62355888 80.12790949 -19.56261332 78.30147524 -21.48168945 76.43164062 C-22.19860458 75.73401611 -22.91551971 75.0363916 -23.65415955 74.31762695 C-26.84717267 71.18331934 -30.03484788 68.04376475 -33.21411133 64.89550781 C-34.89250871 63.2388399 -36.57714892 61.58847401 -38.26782227 59.94433594 C-40.72424239 57.55471675 -43.16048766 55.14608161 -45.59326172 52.73242188 C-46.35046005 52.0030542 -47.10765839 51.27368652 -47.88780212 50.5222168 C-51.17111912 47.22578966 -53.0682271 45.13267221 -54.44018555 40.61474609 C-54.28466797 37.41992188 -54.28466797 37.41992188 -53.19580078 35.48291016 C-52.6321582 34.99032715 -52.06851563 34.49774414 -51.48779297 33.99023438 C-50.86428955 33.42731689 -50.24078613 32.86439941 -49.59838867 32.28442383 C-48.91736084 31.71038818 -48.23633301 31.13635254 -47.53466797 30.54492188 C-46.84526123 29.93414795 -46.15585449 29.32337402 -45.44555664 28.6940918 C-40.73241944 24.55018729 -35.89099487 20.55721253 -30.97998047 16.65039062 C-26.84261016 13.22656679 -22.98631762 9.51618116 -19.10888672 5.80273438 C-12.88284959 0.54978465 -7.85188402 -0.02404371 0 0 Z M-18.27294922 21.33398438 C-20.81190194 23.9666072 -23.54081371 26.31724131 -26.32763672 28.68164062 C-28.74139106 30.82559408 -31.00182474 33.13707864 -33.28466797 35.41992188 C-21.73466797 35.41992188 -10.18466797 35.41992188 1.71533203 35.41992188 C3.36533203 31.83117187 5.01533203 28.24242187 6.71533203 24.54492188 C7.23740234 23.4145752 7.75947266 22.28422852 8.29736328 21.11962891 C8.70341797 20.23130371 9.10947266 19.34297852 9.52783203 18.42773438 C9.94677734 17.51652832 10.36572266 16.60532227 10.79736328 15.66650391 C11.84141501 13.51583565 11.84141501 13.51583565 11.71533203 11.41992188 C-1.50764629 10.84221894 -8.8350416 11.35835707 -18.27294922 21.33398438 Z M23.71533203 11.41992188 C22.06533203 15.00867188 20.41533203 18.59742188 18.71533203 22.29492188 C18.19326172 23.42526855 17.67119141 24.55561523 17.13330078 25.72021484 C16.52421875 27.05270264 16.52421875 27.05270264 15.90283203 28.41210938 C15.48388672 29.32331543 15.06494141 30.23452148 14.63330078 31.17333984 C13.58924905 33.3240081 13.58924905 33.3240081 13.71533203 35.41992188 C32.85533203 35.41992188 51.99533203 35.41992188 71.71533203 35.41992188 C68.18802508 27.35750598 64.6509246 19.29110702 60.71533203 11.41992188 C48.50533203 11.41992188 36.29533203 11.41992188 23.71533203 11.41992188 Z M73.71533203 11.41992188 C74.79594938 13.92112608 75.87975193 16.42087217 76.96533203 18.91992188 C77.26568359 19.61601562 77.56603516 20.31210937 77.87548828 21.02929688 C78.17841797 21.72539062 78.48134766 22.42148437 78.79345703 23.13867188 C79.06577148 23.76708984 79.33808594 24.39550781 79.61865234 25.04296875 C81.23311052 28.5421595 82.99191617 31.97309016 84.71533203 35.41992188 C95.93533203 35.41992188 107.15533203 35.41992188 118.71533203 35.41992188 C115.17835379 31.17554799 112.58014294 28.27711716 108.40283203 24.98242188 C104.31880073 21.72838886 100.38707278 18.3894072 96.56689453 14.83007812 C91.81606076 11.21182709 87.18507773 11.16057122 81.40283203 11.29492188 C80.29198242 11.30845703 80.29198242 11.30845703 79.15869141 11.32226562 C77.34409736 11.34567974 75.52967132 11.38154572 73.71533203 11.41992188 Z M12.71533203 45.41992188 C21.16517394 66.56983878 21.16517394 66.56983878 29.82348633 87.63183594 C30.81340081 90.00519959 31.79859089 92.38049409 32.78369141 94.75585938 C33.41818248 96.27941124 34.05293646 97.80285366 34.68798828 99.32617188 C34.97956314 100.03004028 35.271138 100.73390869 35.57154846 101.45910645 C36.76161164 104.67526069 36.76161164 104.67526069 38.71533203 107.41992188 C41.38592054 107.56107349 44.03965441 107.46239295 46.71533203 107.41992188 C49.15130466 101.60762095 51.5865721 95.79502521 54.02124023 89.98217773 C54.84625085 88.01269931 55.67144039 86.04329583 56.49682617 84.07397461 C58.86721864 78.41817494 61.23398493 72.76088349 63.59552002 67.10137939 C64.33303008 65.33536699 65.07172907 63.56985056 65.81170654 61.80487061 C66.81287089 59.41621394 67.80961448 57.02576187 68.80517578 54.63476562 C69.25142052 53.57413658 69.25142052 53.57413658 69.7066803 52.49208069 C71.21009737 49.0716066 71.21009737 49.0716066 71.71533203 45.41992188 C52.24533203 45.41992188 32.77533203 45.41992188 12.71533203 45.41992188 Z M-34.28466797 46.41992188 C-31.09414036 50.19186983 -27.91308068 53.93154527 -24.40966797 57.41992188 C-23.81412109 58.01804687 -23.21857422 58.61617187 -22.60498047 59.23242188 C-20.66929806 61.05730765 -18.69840046 62.79009764 -16.68066406 64.52172852 C-12.13822391 68.48963281 -7.87713785 72.70040703 -3.62841797 76.97851562 C-2.84067993 77.76766861 -2.05294189 78.55682159 -1.24133301 79.36988831 C1.24660305 81.863372 3.73101827 84.36032972 6.21533203 86.85742188 C7.91301613 88.56012775 9.61093061 90.26260395 11.30908203 91.96484375 C15.44716483 96.113886 19.58237138 100.26577764 23.71533203 104.41992188 C24.85812087 100.99155536 24.63379076 100.57179288 23.25585938 97.41430664 C22.91154877 96.61239395 22.56723816 95.81048126 22.2124939 94.98426819 C21.82928986 94.11869797 21.44608582 93.25312775 21.05126953 92.36132812 C20.66218414 91.46179916 20.27309875 90.5622702 19.8722229 89.63548279 C18.6205943 86.74711991 17.35581036 83.86473996 16.09033203 80.98242188 C15.26000434 79.07461047 14.43056696 77.1664113 13.60205078 75.2578125 C12.39784151 72.48428059 11.19261009 69.71124033 9.98236084 66.94033813 C7.43998557 61.11695628 4.96413043 55.27356051 2.57714844 49.38452148 C1.87347357 47.45690245 1.87347357 47.45690245 0.71533203 46.41992188 C-1.87826119 46.33140658 -4.44506488 46.30466243 -7.03857422 46.32226562 C-7.81402084 46.32368057 -8.58946747 46.32509552 -9.38841248 46.32655334 C-11.87470291 46.33216842 -14.36090457 46.34472341 -16.84716797 46.35742188 C-18.5288073 46.36243494 -20.21044803 46.36699818 -21.89208984 46.37109375 C-26.02298363 46.38214274 -30.15381073 46.39941743 -34.28466797 46.41992188 Z M84.71533203 46.41992188 C81.36483158 53.12092278 78.20418188 59.73364679 75.32470703 66.62695312 C74.93462463 67.55537521 74.54454224 68.4837973 74.14263916 69.44035339 C73.32756947 71.38325517 72.51425229 73.32689302 71.70263672 75.27124023 C70.46025373 78.24457552 69.20919756 81.21416133 67.95751953 84.18359375 C67.16272438 86.08116068 66.36843545 87.97893974 65.57470703 89.87695312 C65.20182556 90.76034866 64.82894409 91.6437442 64.44476318 92.5539093 C64.10060364 93.38214706 63.75644409 94.21038483 63.40185547 95.0637207 C63.09938904 95.78634598 62.79692261 96.50897125 62.48529053 97.25349426 C61.64424802 99.61993054 61.15286933 101.94973114 60.71533203 104.41992188 C66.09429633 99.9356171 71.07075197 95.18324274 75.99267578 90.20507812 C77.14794518 89.0441288 77.14794518 89.0441288 78.32655334 87.85972595 C81.59336057 84.57670454 84.85416244 81.28774242 88.11547852 77.99926758 C90.50994341 75.58660657 92.90749 73.17703761 95.30517578 70.76757812 C96.02938217 70.03507339 96.75358856 69.30256866 97.4997406 68.54786682 C101.53693959 64.49154979 105.66923024 60.61807828 110.0138092 56.891922 C112.16907191 55.02738811 114.20455215 53.06368104 116.21533203 51.04492188 C117.22080078 50.04332031 117.22080078 50.04332031 118.24658203 49.02148438 C119.82797993 47.6592659 119.82797993 47.6592659 119.71533203 46.41992188 C108.16533203 46.41992188 96.61533203 46.41992188 84.71533203 46.41992188 Z M-184.28466797 118.41992188 C-184.28466797 126.00992188 -184.28466797 133.59992188 -184.28466797 141.41992188 C-127.10174432 141.44270979 -69.91882124 141.4604208 -12.73589394 141.4709872 C-5.99263046 141.4722346 0.75063302 141.47353114 7.49389648 141.47485352 C8.16495009 141.47498427 8.8360037 141.47511503 9.52739227 141.47524976 C31.29771632 141.4795149 53.06803777 141.48702903 74.83836025 141.4962191 C97.83405537 141.50590886 120.82974943 141.51191549 143.82544667 141.51401037 C157.60939052 141.51538593 171.39332694 141.51973829 185.17726851 141.52783834 C194.61553548 141.53310384 204.05379858 141.53472662 213.49206691 141.53342325 C218.94623857 141.53277956 224.4003972 141.53380083 229.85456657 141.53912735 C234.83904833 141.54395993 239.8235082 141.54426146 244.80799092 141.54082077 C246.61957187 141.54039494 248.43115413 141.54169186 250.24273246 141.54480506 C252.68854408 141.54876673 255.13427467 141.54668672 257.5800848 141.5429697 C258.65667093 141.54691022 258.65667093 141.54691022 259.75500628 141.55093035 C263.01590325 141.81899951 263.01590325 141.81899951 265.71533203 140.41992188 C265.81432727 138.87036629 265.84612727 137.31638515 265.84814453 135.76367188 C265.85007812 134.35408203 265.85007812 134.35408203 265.85205078 132.91601562 C265.84818359 131.92730469 265.84431641 130.93859375 265.84033203 129.91992188 C265.84419922 128.93121094 265.84806641 127.9425 265.85205078 126.92382812 C265.85076172 125.98410156 265.84947266 125.044375 265.84814453 124.07617188 C265.8470166 123.20798828 265.84588867 122.33980469 265.84472656 121.4453125 C265.93948573 119.42388034 265.93948573 119.42388034 264.71533203 118.41992188 C262.32744603 118.32116992 259.96849213 118.288132 257.5800848 118.29687405 C256.82085117 118.2957202 256.06161754 118.29456636 255.27937683 118.29337755 C252.70266361 118.29070374 250.12601128 118.29523928 247.54930115 118.29966736 C245.69640258 118.29923181 243.84350407 118.29835721 241.99060589 118.29707819 C236.87355081 118.29482997 231.75651646 118.29885897 226.63946402 118.30385625 C221.13090934 118.3081559 215.62235593 118.30671468 210.11380005 118.30595398 C200.56140806 118.30542843 191.00902289 118.30857841 181.45663261 118.31419182 C167.64530687 118.3223027 153.83398443 118.32492161 140.02265657 118.32617981 C117.61723473 118.32837098 95.2118162 118.33502426 72.80639648 118.34448242 C51.03556334 118.35366212 29.26473117 118.36074805 7.49389648 118.36499023 C6.82319691 118.36512176 6.15249733 118.36525329 5.46147352 118.3653888 C-1.27377342 118.36670728 -8.00902036 118.3679831 -14.74426732 118.36922766 C-71.25773678 118.37967436 -127.77120212 118.39740074 -184.28466797 118.41992188 Z " fill="#000000" transform="translate(213.28466796875,6.580078125)"/>
<path d="M0 0 C1.94499948 1.94499948 1.12300595 4.90022214 1.12908131 7.4891482 C1.12471205 8.90302959 1.12471205 8.90302959 1.12025452 10.34547424 C1.12110894 11.33863189 1.12196337 12.33178954 1.12284368 13.35504287 C1.12450149 16.71010181 1.11897221 20.06511163 1.11352539 23.42016602 C1.11324356 25.81437173 1.11340118 28.20857754 1.1139679 30.6027832 C1.11419621 35.77130681 1.11134489 40.93981914 1.10573006 46.10833931 C1.09761712 53.58123288 1.09500005 61.05412033 1.09374207 68.52701782 C1.09155122 80.65009541 1.08489025 92.77316629 1.07543945 104.89624023 C1.06626618 116.67553677 1.05918493 128.45483148 1.05493164 140.23413086 C1.05453756 141.32249666 1.05453756 141.32249666 1.05413551 142.43284965 C1.05283051 146.07270832 1.05156679 149.712567 1.05032361 153.35242569 C1.03994998 183.56828875 1.02205636 213.78414308 1 244 C10.9 244 20.8 244 31 244 C30.99333817 241.8960788 30.98667633 239.79215759 30.97981262 237.6244812 C30.91853156 217.81843503 30.8738733 198.01240135 30.84456348 178.20628166 C30.82909374 168.02322523 30.80800213 157.84023835 30.77368164 147.65722656 C30.74378262 138.7818507 30.72442578 129.90652522 30.71773452 121.03110039 C30.71382312 116.33150059 30.70462849 111.63204492 30.68280983 106.9324913 C30.66243678 102.50843723 30.65616787 98.08458656 30.66067696 93.66049004 C30.65985212 92.03754127 30.65389131 90.41458565 30.64238358 88.79167747 C30.62742631 86.57334297 30.63105771 84.35577338 30.63923645 82.13742065 C30.63647107 80.8966873 30.63370569 79.65595394 30.63085651 78.3776226 C31.18684892 73.29035276 32.81195603 70.07127272 36.59910583 66.65635681 C41.03547723 64.49568564 44.54530954 64.44407433 49.41430664 64.49829102 C50.80808784 64.49018654 50.80808784 64.49018654 52.23002625 64.48191833 C55.29039715 64.46944764 58.34982436 64.48591006 61.41015625 64.50390625 C63.54194691 64.50375124 65.67373786 64.50226188 67.80552673 64.49949646 C72.26834608 64.49811325 76.73084373 64.51065879 81.19360352 64.53344727 C86.91246004 64.56184864 92.63078287 64.55908873 98.34967899 64.54635715 C102.74975642 64.53940117 107.14971058 64.54718811 111.54977226 64.55961418 C113.6584876 64.56412823 115.76721617 64.56446589 117.87593269 64.56054878 C120.82259365 64.55763697 123.76851981 64.57414193 126.71508789 64.59594727 C127.58535614 64.59144562 128.45562439 64.58694397 129.3522644 64.58230591 C134.02516778 64.63973224 137.28819958 64.85178192 141 68 C144.02976491 72.08270697 144.3718409 75.06028366 144.36076355 80.09309387 C144.3633316 80.79396622 144.36589966 81.49483856 144.36854553 82.21694946 C144.37350052 84.56649859 144.35695921 86.91540234 144.34057617 89.26489258 C144.33965696 90.97760593 144.340058 92.69032042 144.34167194 94.40303326 C144.34234897 98.98787901 144.32496686 103.57248967 144.30384064 108.15727997 C144.28675048 112.46012612 144.285951 116.76291521 144.28381348 121.0657959 C144.26807412 133.64806171 144.22619063 146.23028383 144.1875 158.8125 C144.125625 186.924375 144.06375 215.03625 144 244 C226.5 244 309 244 394 244 C394 237.73 394 231.46 394 225 C395.65 224.01 397.3 223.02 399 222 C401.43028072 222.66280383 403.2010972 223.2010972 405 225 C405.08651611 226.41570123 405.10704904 227.835595 405.09765625 229.25390625 C405.09443359 230.10791016 405.09121094 230.96191406 405.08789062 231.84179688 C405.07951172 232.73962891 405.07113281 233.63746094 405.0625 234.5625 C405.05798828 235.46419922 405.05347656 236.36589844 405.04882812 237.29492188 C405.03700225 239.53001314 405.0205222 241.76497437 405 244 C406.26070313 243.97292969 407.52140625 243.94585937 408.8203125 243.91796875 C412.70614947 243.83453053 414.88711521 244.52800325 418 247 C421.22540664 251.83810996 420.40972064 257.12390366 420.4375 262.8125 C420.47037109 263.98876953 420.50324219 265.16503906 420.53710938 266.37695312 C420.59738654 276.07061772 420.59738654 276.07061772 417.66015625 279.76171875 C413.44211794 283.31081706 410.23412308 283.12634029 404.87691498 283.13142776 C404.14328643 283.1334804 403.40965788 283.13553303 402.65379816 283.13764787 C400.17620528 283.14333762 397.69866763 283.1418582 395.22106934 283.14044189 C393.43457904 283.14302438 391.64808931 283.14603722 389.8616004 283.1494453 C384.93728594 283.15753191 380.01298604 283.15930579 375.08866572 283.16004276 C369.78390405 283.16189038 364.47914999 283.16943612 359.1743927 283.17617798 C347.56936815 283.18977254 335.96434706 283.19578746 324.35931587 283.20018864 C317.11866813 283.20294856 309.87802172 283.20718539 302.63737488 283.21169281 C282.60507542 283.2238858 262.57277703 283.2341858 242.54047394 283.2375679 C241.25785831 283.23778747 239.97524269 283.23800703 238.65375993 283.23823325 C237.36801813 283.23845153 236.08227632 283.23866981 234.75757265 283.2388947 C232.15202109 283.23933817 229.54646953 283.23978474 226.94091797 283.24023438 C225.64846521 283.2404558 224.35601245 283.24067723 223.02439445 283.24090537 C202.06535033 283.2448564 181.10634091 283.26231957 160.1473102 283.2855939 C138.64871343 283.30927554 117.1501341 283.32176826 95.65152407 283.32293582 C83.57277315 283.32385426 71.49406747 283.32964902 59.41532898 283.34775543 C49.13368432 283.36311331 38.85209888 283.36830242 28.57044494 283.36001733 C23.32051701 283.35609577 18.07070849 283.35711342 12.82079506 283.37107468 C8.02069049 283.38372359 3.22079617 283.38269621 -1.57930773 283.37048396 C-3.321523 283.36851124 -5.0637527 283.37167716 -6.8059476 283.38032833 C-9.16319697 283.39129831 -11.51968807 283.38402171 -13.87691498 283.3719368 C-15.84579375 283.37283243 -15.84579375 283.37283243 -17.85444784 283.37374616 C-21 283 -21 283 -22.87219477 281.63495708 C-26.66660553 276.13427438 -26.33482922 269.90402115 -26.3125 263.5 C-26.32861328 262.57574219 -26.34472656 261.65148437 -26.36132812 260.69921875 C-26.36513427 255.37823343 -26.01138841 251.58254758 -23 247 C-18.78852787 243.39016675 -15.27528981 243.90300795 -10 244 C-10.00553076 242.13334324 -10.00553076 242.13334324 -10.01117325 240.22897625 C-10.0977506 210.70770192 -10.16373492 181.18645635 -10.20426132 151.66508658 C-10.20926432 148.03380424 -10.21444159 144.40252217 -10.21972656 140.77124023 C-10.2207758 140.04829839 -10.22182505 139.32535655 -10.22290608 138.58050738 C-10.24032505 126.86514655 -10.2718709 115.149864 -10.30861118 103.43454965 C-10.3459792 91.4191182 -10.36822706 79.40372782 -10.37635398 67.38824064 C-10.38135641 60.63695422 -10.39341679 53.88583125 -10.42292023 47.1346035 C-10.449981 40.78582663 -10.45846388 34.43730143 -10.45243073 28.08847237 C-10.45353515 25.75312306 -10.46154419 23.41776572 -10.4768219 21.08246613 C-10.49660332 17.90400356 -10.49198222 14.72650232 -10.48101807 11.54801941 C-10.49266943 10.61514845 -10.5043208 9.68227748 -10.51632524 8.7211377 C-10.45823286 2.5286959 -10.45823286 2.5286959 -8.16915512 -0.11237621 C-5.1440801 -1.3502446 -3.10761538 -0.82869744 0 0 Z M43 77 C42.903063 79.15159726 42.87813217 81.30644111 42.87974548 83.46022034 C42.87889106 84.14302801 42.87803663 84.82583568 42.87715632 85.52933449 C42.87549957 87.83411691 42.88102603 90.13882772 42.88647461 92.44360352 C42.88675647 94.08905028 42.88659878 95.73449716 42.8860321 97.37994385 C42.88574407 101.86115759 42.89164179 106.34234481 42.89860606 110.82355237 C42.90483858 115.50142105 42.90544332 120.17929028 42.90663147 124.85716248 C42.90974509 133.72175168 42.91795889 142.58632862 42.92798096 151.45091242 C42.94122612 163.42512564 42.94664176 175.3993422 42.95248318 187.37356091 C42.96189876 206.2490498 42.98181747 225.1245128 43 244 C73.03 244 103.06 244 134 244 C134.02911728 214.54492322 134.02911728 214.54492322 134.04882812 185.08984375 C134.05477013 173.08446833 134.06176908 161.07909991 134.07543945 149.07373047 C134.08538917 140.33170278 134.09185412 131.58968074 134.09408849 122.84764755 C134.09539511 118.21641901 134.09847788 113.58520667 134.10573006 108.95398331 C134.1124948 104.59893447 134.11461603 100.24390857 134.11310768 95.88885498 C134.1133838 94.28681183 134.11538624 92.68476796 134.11920547 91.08272934 C134.1241498 88.90262796 134.12299553 86.72261421 134.12025452 84.54251099 C134.12117631 83.32021349 134.1220981 82.09791599 134.12304783 80.83857918 C134.19563406 78.05121944 134.19563406 78.05121944 133 76 C121.41311598 75.97687772 109.82623741 75.9590855 98.23933506 75.94818783 C92.85966238 75.94295875 87.48000542 75.93586065 82.1003418 75.92456055 C76.91325157 75.91373255 71.72617651 75.90772335 66.53907585 75.90512276 C64.5554372 75.90326835 62.57179942 75.89964744 60.58816719 75.89426994 C57.81990864 75.88706068 55.05171362 75.88600901 52.28344727 75.88647461 C51.45482681 75.88287933 50.62620636 75.87928406 49.7724762 75.87557983 C46.08497372 75.52881821 46.08497372 75.52881821 43 77 Z M-14 255 C-14 260.28 -14 265.56 -14 271 C125.92 271 265.84 271 410 271 C410 265.72 410 260.44 410 255 C270.08 255 130.16 255 -14 255 Z " fill="#000000" transform="translate(58,222)"/>
<path d="M0 0 C4.16907755 -0.0384459 8.33818375 -0.06635263 12.50735569 -0.09228802 C14.35016499 -0.10662907 16.19294274 -0.12617917 18.03563404 -0.1514883 C20.4943167 -0.18494469 22.95246407 -0.20024409 25.41133404 -0.21108341 C26.44584729 -0.23281463 26.44584729 -0.23281463 27.5012598 -0.25498486 C33.4061213 -0.24795309 37.93237112 1.26498677 42.47798443 5.09287167 C45.68458451 9.03945639 45.24886127 13.22138626 45.24342632 18.05072689 C45.24639745 18.87055636 45.24936857 19.69038583 45.25242972 20.53505862 C45.26112565 23.29180733 45.26262572 26.04851266 45.26411724 28.80527401 C45.26874473 30.77787526 45.2737693 32.75047561 45.27916241 34.72307491 C45.29229392 40.088764 45.29873268 45.45444057 45.30317307 50.82014322 C45.30610222 54.17056192 45.3102067 57.52097718 45.31467724 60.87139416 C45.32835335 71.34881969 45.33801979 81.8262374 45.34187913 92.30367124 C45.3463621 104.40838889 45.36392066 116.51299375 45.39287972 128.61767709 C45.41447498 137.96805917 45.42458224 147.31840945 45.42592025 156.66881621 C45.42696971 162.25643377 45.43290754 167.84394531 45.45073986 173.43153667 C45.46718354 178.68625541 45.46939407 183.94078801 45.46060085 189.19552326 C45.45982852 191.12527431 45.46419887 193.05503522 45.4740591 194.98476124 C45.48672174 197.61708054 45.48093293 200.24873492 45.4704771 202.88104916 C45.48256171 204.02925422 45.48256171 204.02925422 45.49489045 205.20065534 C45.43909359 211.19762756 43.99422737 214.12655901 39.90890026 218.37404633 C36.31260268 220.57703736 33.30008107 220.64769574 29.20833111 220.59407711 C28.41946121 220.59961151 27.63059131 220.6051459 26.81781626 220.61084801 C24.17752468 220.62444863 21.53817937 220.60948891 18.8979063 220.59458065 C17.00382365 220.59836405 15.10974375 220.60386426 13.21567059 220.61095333 C8.07311545 220.62492249 2.93089434 220.61372783 -2.21164227 220.59724212 C-7.59183615 220.58339833 -12.97201051 220.58985093 -18.35221577 220.59337521 C-27.38754889 220.59607785 -36.42274921 220.58259697 -45.45805073 220.5594244 C-55.90603097 220.53281436 -66.35378915 220.53106739 -76.80179167 220.54281276 C-86.84995491 220.55358976 -96.89803779 220.54740407 -106.94619465 220.53325748 C-111.22360857 220.52749702 -115.50096369 220.52758086 -119.77837849 220.53232288 C-124.81483736 220.53709312 -129.85105289 220.52698895 -134.88746548 220.50536823 C-136.73657695 220.49980084 -138.58571181 220.49933463 -140.43482494 220.5043211 C-142.95760795 220.51027136 -145.47964634 220.49777405 -148.00236225 220.48055172 C-149.10182957 220.48956679 -149.10182957 220.48956679 -150.22350836 220.49876398 C-154.62553346 220.44406046 -157.45940971 219.89466365 -160.89701557 217.09287167 C-164.285538 212.97505515 -164.32482637 208.98684555 -164.28469563 203.86327267 C-164.29008116 203.03835636 -164.2954667 202.21344005 -164.30101544 201.36352628 C-164.31531471 198.60136239 -164.30818647 195.8396764 -164.30106831 193.07749081 C-164.30677084 191.09636201 -164.31373465 189.11523649 -164.32186604 187.13411617 C-164.33982535 181.7539684 -164.33862384 176.37398347 -164.33292365 170.99381471 C-164.32983584 166.50312925 -164.33591971 162.01247525 -164.3419624 157.52179426 C-164.3560151 146.92835405 -164.35444009 136.33499447 -164.34306049 125.74155331 C-164.331578 114.81073536 -164.34565555 103.88016273 -164.37245697 92.94937712 C-164.3946038 83.56580312 -164.40125365 74.18230618 -164.39538056 64.7987079 C-164.39200742 59.19374623 -164.39444983 53.58894183 -164.41163158 47.98400211 C-164.42708238 42.71358946 -164.42316574 37.44354062 -164.40432644 32.17314243 C-164.40063542 30.23897783 -164.40376391 28.30478638 -164.41421223 26.37064648 C-164.42738878 23.72982826 -164.41590458 21.09022036 -164.39822102 18.44945431 C-164.40782602 17.6843704 -164.41743103 16.91928649 -164.4273271 16.13101822 C-164.35624674 10.97064817 -163.24699437 8.00682405 -159.89701557 4.09287167 C-156.2836535 1.29492038 -153.64832476 0.71498887 -149.12502766 0.69414425 C-147.97010319 0.6816061 -146.81517872 0.66906796 -145.62525654 0.65614986 C-144.36585255 0.65758495 -143.10644855 0.65902004 -141.80888081 0.66049862 C-140.46082382 0.65147366 -139.11277502 0.64114464 -137.76473713 0.62961483 C-134.09688503 0.60198481 -130.42918823 0.59274313 -126.76124549 0.58676076 C-122.8766779 0.57731259 -118.99222204 0.55106692 -115.10772419 0.52675533 C-107.70172851 0.48298077 -100.29575429 0.45454277 -92.88966852 0.43143195 C-84.63883016 0.40490348 -76.38811886 0.36071456 -68.13736701 0.31520009 C-53.98556928 0.23748096 -39.83384192 0.1811699 -25.68188071 0.14414525 C-17.12090299 0.12140334 -8.56067634 0.0807652 0 0 Z M-152.89701557 14.09287167 C-152.99697031 16.60731876 -153.03142862 19.09436073 -153.02399921 21.60935116 C-153.0255592 22.40579273 -153.0271192 23.2022343 -153.02872646 24.02281046 C-153.03273971 26.71219822 -153.02954557 29.40153029 -153.0264101 32.09091854 C-153.027764 34.0106017 -153.02954387 35.9302846 -153.03172016 37.849967 C-153.03629587 43.07915344 -153.03450437 48.30832025 -153.03134108 53.53750706 C-153.02881818 58.99700252 -153.03115481 64.45649625 -153.03272724 69.91599178 C-153.03454915 79.0861202 -153.03214208 88.25624057 -153.02738667 97.42636776 C-153.02194401 108.04469526 -153.02370665 118.66300355 -153.02921307 129.28133059 C-153.03374361 138.38023115 -153.03439504 147.47912592 -153.0317744 156.57802725 C-153.0302113 162.02018867 -153.03001876 167.46234106 -153.03331089 172.90450191 C-153.03618875 178.01960243 -153.03421549 183.13467807 -153.02841663 188.24977589 C-153.02708857 190.1328232 -153.02748392 192.0158726 -153.0296793 193.89891911 C-153.03238902 196.45810555 -153.02901188 199.01721097 -153.02399921 201.57639217 C-153.02622994 202.33153213 -153.02846066 203.08667209 -153.03075898 203.86469507 C-153.32141235 207.26612524 -153.32141235 207.26612524 -151.89701557 210.09287167 C-149.52347167 210.1927325 -147.17897101 210.22729704 -144.80486774 210.21985531 C-144.05405082 210.2214153 -143.30323389 210.22297529 -142.52966493 210.22458255 C-139.99462492 210.22859542 -137.459644 210.2254018 -134.92460346 210.2222662 C-133.11491581 210.22362012 -131.30522843 210.22540001 -129.49554157 210.22757626 C-124.56586482 210.23215195 -119.6362089 210.23036039 -114.70653176 210.22719717 C-109.55847284 210.22467388 -104.41041575 210.22701106 -99.26235676 210.22858334 C-90.61428728 210.23040529 -81.96622633 210.22799823 -73.31815815 210.22324276 C-63.30764999 210.21780181 -53.2971622 210.21956148 -43.28665453 210.22506917 C-34.7066299 210.22960162 -26.12661142 210.23025014 -17.54658598 210.2276305 C-12.41570733 210.22606823 -7.28483827 210.22587255 -2.15396023 210.22916698 C2.66976853 210.23204755 7.49347094 210.23006656 12.31719685 210.22427273 C14.09178276 210.22294606 15.86637088 210.22333768 17.64095592 210.22553539 C20.05528527 210.22825056 22.46952912 210.22486121 24.88385296 210.21985531 C25.59327964 210.22208603 26.30270633 210.22431675 27.03363079 210.22661507 C30.69151614 210.25791602 30.69151614 210.25791602 34.10298443 209.09287167 C34.10298443 144.41287167 34.10298443 79.73287167 34.10298443 13.09287167 C3.43360943 13.07224667 -27.23576557 13.05162167 -58.83451557 13.03037167 C-73.38662128 13.01671566 -73.38662128 13.01671566 -88.23270893 13.00278378 C-96.89201814 12.99944035 -96.89201814 12.99944035 -105.55132771 12.99742794 C-109.4229562 12.99649232 -113.29457112 12.99272916 -117.16619587 12.9872961 C-122.0949022 12.98047057 -127.02358862 12.97837425 -131.95229924 12.97979939 C-133.76725028 12.9795011 -135.58220197 12.97749844 -137.39714897 12.97365654 C-139.83661897 12.96872989 -142.27601019 12.96986423 -144.71548176 12.97261715 C-145.4360806 12.96970448 -146.15667944 12.96679182 -146.89911461 12.96379089 C-150.17962682 12.6907495 -150.17962682 12.6907495 -152.89701557 14.09287167 Z " fill="#000000" transform="translate(389.89701557159424,205.9071283340454)"/>
<path d="M0 0 C1.44709099 -0.01441132 1.44709099 -0.01441132 2.92341614 -0.02911377 C3.96922348 -0.03336365 5.01503082 -0.03761353 6.0925293 -0.04199219 C7.7019062 -0.0505423 7.7019062 -0.0505423 9.34379578 -0.05926514 C11.61769624 -0.06872402 13.89161047 -0.07525263 16.16552734 -0.07910156 C19.6420898 -0.08879841 23.11805903 -0.1198104 26.59448242 -0.15136719 C28.8021612 -0.15789798 31.00984421 -0.16314815 33.2175293 -0.16699219 C34.25726395 -0.17933899 35.2969986 -0.19168579 36.36824036 -0.20440674 C45.68917146 -0.17569241 45.68917146 -0.17569241 49.35424805 3.16113281 C50.92394691 8.03546086 51.41760986 12.76803173 51.9440918 17.8515625 C53.48368766 32.09282427 58.05150827 43.43904618 68.60424805 53.41113281 C75.683581 59.10297957 84.16619678 61.62972533 92.9206543 63.48535156 C95.35424805 64.16113281 95.35424805 64.16113281 97.35424805 66.16113281 C100.90153823 89.37975947 89.07936995 117.85986654 75.7902832 136.3125 C62.53189824 153.9523223 44.20208324 165.57848645 22.51831055 169.70019531 C6.39065701 170.71821995 -12.07715653 159.15855949 -23.71484375 148.9296875 C-44.19147609 130.07140269 -54.98118215 101.61750453 -56.84887695 74.17675781 C-56.8643457 73.26410156 -56.87981445 72.35144531 -56.89575195 71.41113281 C-56.9215332 70.48816406 -56.94731445 69.56519531 -56.97387695 68.61425781 C-56.64575195 66.16113281 -56.64575195 66.16113281 -55.5715332 64.44628906 C-52.74579905 62.56055572 -49.88841484 62.08498141 -46.58325195 61.34863281 C-34.9088664 58.46153962 -26.82233192 52.96675692 -19.64575195 43.16113281 C-13.44938899 32.74629831 -11.37422875 21.01322859 -11.1496582 9.03613281 C-10.52034083 5.44560886 -9.13864999 3.77052141 -6.64575195 1.16113281 C-4.23570011 -0.04389311 -2.69212414 0.02160135 0 0 Z M0.35424805 11.16113281 C0.35424805 12.15113281 0.35424805 13.14113281 0.35424805 14.16113281 C13.22424805 14.16113281 26.09424805 14.16113281 39.35424805 14.16113281 C39.35424805 13.17113281 39.35424805 12.18113281 39.35424805 11.16113281 C26.48424805 11.16113281 13.61424805 11.16113281 0.35424805 11.16113281 Z M-0.64575195 25.16113281 C-0.84867355 25.77384033 -1.05159515 26.38654785 -1.26066589 27.01782227 C-1.5284938 27.82437256 -1.79632172 28.63092285 -2.07226562 29.46191406 C-2.33706223 30.26024658 -2.60185883 31.0585791 -2.87467957 31.88110352 C-5.74851303 40.37891071 -9.29901004 47.95025656 -14.64575195 55.16113281 C-15.34700195 56.17175781 -16.04825195 57.18238281 -16.77075195 58.22363281 C-20.7100885 62.86969418 -26.54267672 65.95441568 -31.64575195 69.16113281 C-30.32575195 71.80113281 -29.00575195 74.44113281 -27.64575195 77.16113281 C-26.94450195 77.11472656 -26.24325195 77.06832031 -25.52075195 77.02050781 C-19.0873034 76.77575705 -13.82546316 77.01481227 -8.64575195 81.16113281 C-6.77537004 84.0913978 -5.79336997 86.65014735 -4.83325195 89.97363281 C-4.24543945 91.05644531 -4.24543945 91.05644531 -3.64575195 92.16113281 C-0.5930273 93.0594412 -0.5930273 93.0594412 2.35424805 93.16113281 C3.01424805 92.08863281 3.67424805 91.01613281 4.35424805 89.91113281 C7.34695944 85.77834089 10.45784339 83.6052731 15.35424805 82.16113281 C21.35880758 81.23515145 26.29791603 81.91605973 31.6159668 84.86816406 C33.45991773 86.23973206 34.62367719 87.62747441 35.97924805 89.47363281 C37.15487305 90.80394531 37.15487305 90.80394531 38.35424805 92.16113281 C41.61213823 92.18940859 41.61213823 92.18940859 44.35424805 91.16113281 C44.5244043 90.56945312 44.69456055 89.97777344 44.86987305 89.36816406 C46.51964838 83.98884342 48.07902387 79.21458797 53.0925293 76.07128906 C55.95996431 74.91738171 58.52505312 74.73694987 61.60424805 74.53613281 C63.22073242 74.42398438 63.22073242 74.42398438 64.86987305 74.30957031 C65.6897168 74.26058594 66.50956055 74.21160156 67.35424805 74.16113281 C68.01424805 71.85113281 68.67424805 69.54113281 69.35424805 67.16113281 C68.65299805 66.71125 67.95174805 66.26136719 67.22924805 65.79785156 C59.92022271 60.84241183 55.00967033 55.64740569 50.35424805 48.16113281 C49.74129883 47.17693359 49.74129883 47.17693359 49.1159668 46.17285156 C46.14986006 40.82469771 44.749395 34.91262116 43.1862793 29.04003906 C42.64197387 26.28786534 42.64197387 26.28786534 41.35424805 25.16113281 C38.25173604 25.07239147 35.17156684 25.04594826 32.0690918 25.06347656 C31.13827286 25.06489151 30.20745392 25.06630646 29.24842834 25.06776428 C26.26283614 25.07338109 23.27731775 25.08593642 20.29174805 25.09863281 C18.27286892 25.10364565 16.25398862 25.10820893 14.23510742 25.11230469 C9.27479233 25.12335598 4.31453272 25.14063186 -0.64575195 25.16113281 Z M78.35424805 72.16113281 C74.7982255 78.44767266 74.16189418 83.26083306 74.3894043 90.42285156 C74.3422422 94.09625482 73.55549572 96.22613592 71.35424805 99.16113281 C66.80228404 103.48549862 62.8239259 103.57980056 56.8425293 103.49707031 C54.35424805 103.16113281 54.35424805 103.16113281 51.35424805 101.16113281 C44.52059963 101.55700498 44.52059963 101.55700498 38.35424805 104.16113281 C37.6379259 106.11473867 36.92822678 108.0721137 36.29956055 110.05566406 C34.65671597 113.71472698 31.65611258 115.99240815 28.35424805 118.16113281 C22.46086814 120.12559278 15.72943104 120.14740241 9.97924805 117.66113281 C4.78743174 114.68676577 2.19701533 109.68943467 0.35424805 104.16113281 C-5.6007299 102.19642988 -5.6007299 102.19642988 -11.5871582 102.91894531 C-12.14274414 103.28761719 -12.69833008 103.65628906 -13.27075195 104.03613281 C-17.67557861 106.80954219 -19.52046511 106.73060913 -24.64575195 106.16113281 C-29.82158083 104.36949974 -32.13220254 102.0020428 -34.64575195 97.16113281 C-35.34366822 93.84603053 -35.73286818 91.03229507 -35.39575195 87.66113281 C-35.73472278 84.27142457 -37.35244193 82.52633871 -39.3996582 79.87597656 C-40.92784147 77.77292811 -41.82625209 75.61963241 -42.64575195 73.16113281 C-43.63575195 73.49113281 -44.62575195 73.82113281 -45.64575195 74.16113281 C-45.1698949 98.64614138 -34.94798394 121.28565949 -18.27075195 138.97363281 C-8.83353293 148.04977563 6.07918255 157.47165039 19.52612305 158.29394531 C34.96527558 157.33604169 48.72448203 147.61606716 59.35424805 137.16113281 C60.05549805 136.47277344 60.75674805 135.78441406 61.47924805 135.07519531 C76.68213033 119.10029166 84.41416178 95.92412981 85.35424805 74.16113281 C82.70685888 72.70050431 81.4597647 72.16113281 78.35424805 72.16113281 Z M58.35424805 85.16113281 C56.04752889 87.87662436 56.04752889 87.87662436 56.72924805 90.34863281 C56.93549805 90.94675781 57.14174805 91.54488281 57.35424805 92.16113281 C59.75144237 92.84071884 59.75144237 92.84071884 62.35424805 93.16113281 C63.01424805 92.50113281 63.67424805 91.84113281 64.35424805 91.16113281 C64.03383407 88.55832713 64.03383407 88.55832713 63.35424805 86.16113281 C61.70424805 85.83113281 60.05424805 85.50113281 58.35424805 85.16113281 Z M-23.45825195 89.34863281 C-24.89865523 91.11167391 -24.89865523 91.11167391 -24.33325195 93.34863281 C-24.10637695 93.94675781 -23.87950195 94.54488281 -23.64575195 95.16113281 C-21.24855763 95.84071884 -21.24855763 95.84071884 -18.64575195 96.16113281 C-17.98575195 95.50113281 -17.32575195 94.84113281 -16.64575195 94.16113281 C-16.96616593 91.55832713 -16.96616593 91.55832713 -17.64575195 89.16113281 C-20.6532411 88.00250976 -20.6532411 88.00250976 -23.45825195 89.34863281 Z M12.35424805 96.16113281 C11.02331645 99.56083093 11.02331645 99.56083093 11.35424805 103.16113281 C12.69540204 106.17093164 12.69540204 106.17093164 15.35424805 108.16113281 C19.36228402 109.32710691 21.40707516 109.59353783 25.22924805 107.84863281 C28.14308002 105.53470742 28.2985643 104.58273835 28.79174805 100.84863281 C28.34040724 97.04447461 28.27102856 96.57469875 25.60424805 94.22363281 C20.12819791 90.74844715 17.00331336 92.13194287 12.35424805 96.16113281 Z " fill="#000000" transform="translate(310.645751953125,231.8388671875)"/>
<path d="M0 0 C1.7325 0.1546875 1.7325 0.1546875 3.5 0.3125 C5.90212156 3.91568233 5.75748287 5.59643815 5.765625 9.87890625 C5.76820313 11.16861328 5.77078125 12.45832031 5.7734375 13.78710938 C5.76924805 14.45766357 5.76505859 15.12821777 5.76074219 15.8190918 C5.7500197 17.87123055 5.76065635 19.92249748 5.7734375 21.97460938 C5.77085937 23.26302734 5.76828125 24.55144531 5.765625 25.87890625 C5.76336914 27.06427979 5.76111328 28.24965332 5.75878906 29.47094727 C5.5 32.3125 5.5 32.3125 3.5 34.3125 C0 34.5625 0 34.5625 -3.5 34.3125 C-6.33259575 31.47990425 -5.75838261 29.5855534 -5.765625 25.625 C-5.76753845 24.96669189 -5.7694519 24.30838379 -5.77142334 23.63012695 C-5.7727845 22.2381146 -5.76909283 20.84608953 -5.76074219 19.45410156 C-5.750041 17.32067411 -5.76063906 15.18808869 -5.7734375 13.0546875 C-5.77211589 11.70312314 -5.76955347 10.3515593 -5.765625 9 C-5.76336914 7.76636719 -5.76111328 6.53273438 -5.75878906 5.26171875 C-5.37043186 0.83591219 -4.3697676 0.39015782 0 0 Z " fill="#000000" transform="translate(170.5,364.6875)"/>
<path d="M0 0 C0.886875 -0.00257813 1.77375 -0.00515625 2.6875 -0.0078125 C4.0796875 0.00378906 4.0796875 0.00378906 5.5 0.015625 C6.428125 0.00789063 7.35625 0.00015625 8.3125 -0.0078125 C9.6428125 -0.00394531 9.6428125 -0.00394531 11 0 C11.8146875 0.00225586 12.629375 0.00451172 13.46875 0.00683594 C15.5 0.265625 15.5 0.265625 17.5 2.265625 C17.8125 5.765625 17.8125 5.765625 17.5 9.265625 C13.42926875 11.97944583 10.27671888 11.59690141 5.5 11.578125 C4.27023437 11.60229492 4.27023437 11.60229492 3.015625 11.62695312 C2.22671875 11.62759766 1.4378125 11.62824219 0.625 11.62890625 C-0.09429687 11.63188721 -0.81359375 11.63486816 -1.5546875 11.63793945 C-4.07947481 11.15471899 -4.96370375 10.29747191 -6.5 8.265625 C-6.8125 5.203125 -6.8125 5.203125 -6.5 2.265625 C-4.05013068 -0.18424432 -3.362922 0.00931189 0 0 Z " fill="#000000" transform="translate(489.5,493.734375)"/>
<path d="M0 0 C1.03447266 0.01160156 1.03447266 0.01160156 2.08984375 0.0234375 C2.77949219 0.01570313 3.46914062 0.00796875 4.1796875 0 C9.33651082 0.02010457 9.33651082 0.02010457 11.58984375 2.2734375 C12.14021388 7.44691674 12.14021388 7.44691674 10.4765625 9.9453125 C7.69575129 11.90281935 5.45001077 11.63512913 2.08984375 11.5859375 C0.94515625 11.58207031 -0.19953125 11.57820313 -1.37890625 11.57421875 C-4.41015625 11.2734375 -4.41015625 11.2734375 -7.41015625 9.2734375 C-7.72265625 5.7734375 -7.72265625 5.7734375 -7.41015625 2.2734375 C-4.91805186 -0.21866689 -3.40654837 0.01328089 0 0 Z " fill="#000000" transform="translate(12.41015625,493.7265625)"/>
</svg>
