<?xml version="1.0" encoding="UTF-8" standalone="no"?>
<!DOCTYPE svg PUBLIC "-//W3C//DTD SVG 1.1//EN" "http://www.w3.org/Graphics/SVG/1.1/DTD/svg11.dtd">
<svg xmlns="http://www.w3.org/2000/svg" xmlns:xlink="http://www.w3.org/1999/xlink" version="1.1" width="1703.5432pt" height="1219.2913pt" viewBox="0 0 1703.5432 1219.2913">
<g enable-background="new">
<clipPath id="cp0">
<path transform="matrix(2.7777777,0,0,-2.7777777,25,1194.2913)" d="M -9 -9 L 605 -9 L 605 430 L -9 430 Z " fill-rule="evenodd"/>
</clipPath>
<g clip-path="url(#cp0)">
<g id="Layer-1" data-name="Layer 1">
<path transform="matrix(2.7777777,0,0,-2.7777777,25,1194.2913)" d="M 334.3235 258.4091 L 337.2469 214.5552 L 334.2206 214.5552 C 331.7369 222.8482 328.614 229.7373 324.8436 235.2002 L 290.4049 150.8871 L 286.7882 150.8871 L 252.0292 230.9706 C 250.9243 228.9827 249.8984 226.8507 248.9536 224.5742 C 244.8853 214.7236 242.8347 202.4507 242.8347 187.7913 C 242.8347 175.6868 244.7507 165.1975 248.6169 156.3202 C 252.4839 147.4441 258.3 140.6523 266.0335 135.9113 C 273.8004 131.1704 282.6437 128.8168 292.5621 128.8168 C 301.2032 128.8168 308.8358 130.6661 315.426 134.365 C 322.0495 138.0637 329.3124 145.4272 337.2129 156.4546 L 340.2731 154.438 C 333.582 142.5685 325.7821 133.8936 316.872 128.3805 C 307.9619 122.8992 297.3699 120.1419 285.1319 120.1419 C 263.0412 120.1419 245.9276 128.3465 233.8228 144.7875 C 224.7783 157.0266 220.2398 171.417 220.2398 187.9597 C 220.2398 201.3077 223.232 213.5798 229.1837 224.7426 C 233.5343 232.9296 239.0919 239.7512 245.8392 245.2314 L 236.9857 265.629 C 234.4402 271.5571 232.6317 275.1735 231.5937 276.4797 C 229.9527 278.5232 227.9432 280.1302 225.5312 281.3029 C 223.1538 282.4415 219.9387 283.178 215.8858 283.5128 L 215.8858 287.1303 L 270.2095 287.1303 L 270.2095 283.5128 C 264.0464 282.9098 260.0612 281.8718 258.2189 280.3654 C 256.4107 278.858 255.4733 276.9491 255.4733 274.5709 C 255.4733 271.3218 256.9805 266.1979 259.9946 259.2655 L 261.9207 254.8276 C 270.0771 258.2439 278.7622 259.9452 287.9895 259.9452 C 297.606 259.9452 307.0871 257.5919 316.4683 252.8507 C 319.0706 251.4696 320.9978 250.7335 322.1912 250.6708 L 325.3034 258.294 C 328.3841 265.8969 329.9253 271.1546 329.9253 274.1014 C 329.9253 275.9777 328.9541 277.8199 327.0779 279.5275 C 325.169 281.2691 321.954 282.5084 317.4664 283.2117 C 317.1308 283.2786 316.5619 283.3792 315.7917 283.5128 L 315.7917 287.1303 L 356.5508 287.1303 L 356.5508 283.5128 C 351.862 282.642 348.2785 281.1356 345.8673 278.9586 C 342.417 275.7436 339.3366 270.7858 336.6564 264.1215 Z M 288.5338 341.4149 C 331.4214 341.4149 369.4266 320.5329 392.9528 288.3872 L 392.9343 288.4158 L 392.6262 288.9683 L 392.3501 289.531 L 392.1055 290.1257 L 391.9147 290.7213 L 391.7656 291.3372 L 391.6485 291.9637 L 391.585 292.6015 L 391.5643 293.2277 L 391.585 293.8654 L 391.6485 294.4919 L 391.7554 295.1192 L 391.9147 295.7355 L 392.1055 296.3401 L 392.3396 296.9243 L 392.616 297.4983 L 392.9241 298.0508 L 393.2104 298.4125 L 393.5186 298.7524 L 393.8584 299.0707 L 394.23 299.3468 L 394.6133 299.6014 L 395.0271 299.8037 L 395.4521 299.9846 L 395.8875 300.1221 L 396.3444 300.2176 L 396.8014 300.2709 L 397.2583 300.2924 L 397.7257 300.2607 L 398.1827 300.1969 L 398.6283 300.0903 L 399.0637 299.9526 L 399.4886 299.7615 L 399.8923 299.5492 L 400.2854 299.2935 L 400.6471 299.0069 L 400.9765 298.6886 L 401.4439 298.2101 L 401.8689 297.7109 L 402.2725 297.1905 L 402.6441 296.638 L 402.9738 296.0753 L 403.2819 295.4908 L 403.547 294.8851 L 403.7811 294.2586 L 403.9719 293.6313 L 404.121 292.9833 L 404.238 292.3353 L 404.3117 291.6771 L 404.3438 291.018 L 404.3438 290.3598 L 404.3231 289.5948 L 404.2585 288.8297 L 404.1527 288.0646 L 404.015 287.3109 L 403.8231 286.5563 L 403.6003 285.823 L 403.3457 285.1013 L 403.0478 284.3895 L 402.7079 283.6984 L 402.41 283.0085 L 402.0701 282.3389 L 401.6985 281.6909 L 401.2846 281.075 L 400.8379 280.4692 L 400.3605 279.896 L 399.8503 279.3436 L 399.3214 278.8345 C 405.6673 268.3264 410.5582 256.841 413.7188 244.6586 L 413.7239 245.0086 L 413.7673 245.6464 L 413.8625 246.2726 L 414.0003 246.8889 L 414.1809 247.5051 L 414.3934 248.1007 L 414.6596 248.6735 L 414.9561 249.2374 L 415.296 249.7683 L 415.6792 250.2887 L 416.0826 250.7664 L 416.5285 251.2233 L 417.007 251.6482 L 417.5059 252.0417 L 418.038 252.3917 L 418.5904 252.6999 L 419.1633 252.976 L 419.7475 253.2203 L 420.3533 253.4114 L 420.8207 253.4967 L 421.2879 253.5284 L 421.755 253.5284 L 422.2233 253.4967 L 422.6803 253.4114 L 423.1361 253.2954 L 423.5726 253.1353 L 423.9967 252.934 L 424.4012 252.6999 L 424.7833 252.4348 L 425.1447 252.1267 L 425.4732 251.7973 L 425.7711 251.4359 L 426.0472 251.0538 L 426.2814 250.6501 L 426.4724 250.2252 L 426.6315 249.7785 L 426.8123 249.0134 L 426.9498 248.2381 L 427.0567 247.4527 L 427.1102 246.666 L 427.1306 245.8794 L 427.1102 245.0837 L 427.0465 244.2971 L 426.9396 243.5105 L 426.8021 242.7352 L 426.6099 241.9702 L 426.3871 241.2164 L 426.1326 240.4732 L 425.8244 239.7399 L 425.4846 239.0284 L 425.1129 238.3268 L 424.698 237.6575 L 424.2626 236.9993 L 423.7841 236.3717 L 423.2747 235.7671 L 422.7644 235.2464 L 422.2335 234.7577 L 421.6708 234.3008 L 421.0866 233.8756 L 420.4704 233.4821 L 419.8329 233.132 L 419.1849 232.8239 L 418.7812 232.6011 L 418.4096 232.3352 L 418.0697 232.0376 L 417.7502 231.6974 L 417.4741 231.3371 L 417.2411 230.944 L 417.0489 230.529 L 416.8899 230.0936 L 416.7842 229.648 L 416.7244 229.2301 C 417.4679 223.6224 417.856 217.9037 417.856 212.0927 C 417.856 205.7131 417.3888 199.4431 416.4945 193.3115 L 416.6135 193.9 L 416.7842 194.5695 L 417.007 195.2175 L 417.2615 195.855 L 417.549 196.4815 L 417.8775 197.0872 L 418.2494 197.6717 L 418.6539 198.2242 L 419.0893 198.7654 L 419.5463 199.2756 L 420.0454 199.7532 L 420.5659 200.1997 L 421.1184 200.6135 L 421.6915 200.9965 L 422.2871 201.3364 L 422.9031 201.6445 L 423.5397 201.9209 L 424.1889 202.155 L 424.8471 202.3458 L 425.5163 202.4949 L 426.1963 202.6108 L 426.8761 202.6746 L 427.566 202.7064 L 428.2571 202.6962 L 428.8516 202.6108 L 429.4361 202.4949 L 430.0101 202.3243 L 430.5728 202.1335 L 431.1147 201.8889 L 431.6457 201.6128 L 432.1562 201.3046 L 432.6449 200.9546 L 433.1007 200.5818 L 433.5372 200.1679 L 433.9409 199.7325 L 434.3125 199.2756 L 434.6626 198.7869 L 434.9707 198.2764 L 435.2366 197.7457 L 435.4707 197.1933 L 435.672 196.6303 L 435.8313 196.0563 L 435.9484 195.4721 L 436.0221 194.8776 L 436.0654 194.2829 L 436.055 193.6874 L 436.0119 193.0929 L 435.9268 192.4974 L 435.7471 191.6799 L 435.5232 190.8615 L 435.2581 190.0647 L 434.9503 189.2792 L 434.6101 188.5141 L 434.2272 187.7596 L 433.8023 187.0274 L 433.3453 186.3147 L 432.8575 185.635 L 432.3254 184.9765 L 431.7627 184.3503 L 431.1683 183.7443 L 430.5521 183.1703 L 429.9032 182.6396 L 429.2235 182.1291 L 428.523 181.662 L 427.8002 181.2368 L 427.0567 180.8334 L 426.2916 180.483 L 425.5053 180.1638 L 424.7093 179.8875 L 423.9011 179.6545 L 423.0839 179.4521 L 422.2551 179.3032 L 421.3514 179.1442 L 420.4593 178.943 L 419.578 178.6983 L 418.7177 178.4109 L 417.8571 178.0926 L 417.0172 177.7425 L 416.1883 177.349 L 415.3813 176.9136 L 414.5958 176.4465 L 413.841 175.9465 L 413.0977 175.4155 L 412.4055 174.858 C 410.2152 167.5621 407.4007 160.5353 404.0203 153.8444 L 404.4288 154.4666 L 404.9597 155.2317 L 405.5338 155.9537 L 406.1395 156.6652 L 406.7762 157.3347 L 407.4457 157.9827 L 408.147 158.5987 L 408.869 159.1727 L 409.6239 159.7252 L 410.3991 160.2346 L 411.196 160.7131 L 412.0143 161.1485 L 412.8534 161.5416 L 413.7035 161.9031 L 414.5743 162.2319 L 415.4564 162.508 L 416.359 162.7523 L 417.2615 162.9434 L 417.9413 163.1137 L 418.6222 163.2308 L 419.3121 163.3161 L 420.0021 163.3584 L 420.6932 163.3584 L 421.3834 163.3161 L 422.0745 163.2308 L 422.7542 163.1137 L 423.434 162.9434 L 424.0933 162.7319 L 424.741 162.4876 L 425.3777 162.2112 L 425.994 161.8815 L 426.5895 161.5201 L 427.1522 161.1269 L 427.7047 160.7029 L 428.2254 160.2459 L 428.7141 159.7569 L 429.171 159.2365 L 429.5951 158.684 L 429.9883 158.11 L 430.35 157.5258 L 430.6793 156.9095 L 430.924 156.2831 L 431.1468 155.6456 L 431.316 154.9874 L 431.4546 154.328 L 431.5399 153.6596 L 431.5924 152.9787 L 431.6037 152.3103 L 431.5717 151.6294 L 431.4969 150.961 L 431.3798 150.3017 L 431.2208 149.6435 L 431.0297 148.9955 L 430.7956 148.358 L 430.5203 147.7417 L 430.2009 147.1473 L 429.8508 146.5733 L 429.4678 146.0106 L 429.054 145.4797 L 428.6072 144.9797 L 428.1185 144.502 L 427.6193 144.0553 L 427.0782 143.6417 L 426.5257 143.2698 L 425.9415 142.9186 L 425.0174 142.4197 L 424.082 141.9525 L 423.1259 141.5273 L 422.1595 141.1339 L 421.1708 140.7725 L 420.1727 140.4541 L 419.1633 140.178 L 418.1437 139.9337 L 417.1241 139.7324 L 416.0826 139.5723 L 415.0414 139.4447 L 414.0003 139.3605 L 412.9591 139.3174 L 411.9075 139.3174 L 410.8663 139.3605 L 409.8146 139.4345 L 408.7735 139.5516 L 407.7437 139.7109 L 406.7127 139.9017 L 405.6931 140.1463 L 404.6734 140.3691 L 403.664 140.6452 L 402.6762 140.9533 L 401.6883 141.3045 L 400.7208 141.7079 L 399.7763 142.1433 L 398.8409 142.6107 L 397.9443 143.1281 C 394.7508 138.0719 391.2143 133.2539 387.3719 128.704 L 387.3994 128.7266 L 388.1429 129.2153 L 388.8978 129.6711 L 389.6731 130.0963 L 390.4699 130.4895 L 391.2883 130.8407 L 392.1168 131.1489 L 392.9559 131.4241 L 393.8051 131.6582 L 394.6654 131.8603 L 395.5374 132.0083 L 396.4184 132.1254 L 397.3005 132.2107 L 398.1827 132.2425 L 399.0637 132.2425 L 399.9455 132.2005 L 400.8277 132.1152 L 401.7098 131.9879 L 402.5806 131.8173 L 403.4409 131.616 L 404.2902 131.3717 L 405.1304 131.0956 L 405.9476 130.7761 L 406.766 130.4158 L 407.5526 130.0224 L 408.3279 129.587 L 409.0816 129.13 L 409.8146 128.6311 L 410.5162 128.0991 L 410.9936 127.6637 L 411.4403 127.2067 L 411.855 126.718 L 412.2473 126.1973 L 412.5986 125.6664 L 412.9169 125.1037 L 413.1933 124.5297 L 413.4376 123.9352 L 413.6397 123.3295 L 413.8092 122.703 L 413.9365 122.0754 L 414.0218 121.4391 L 414.0751 120.8013 L 414.0751 120.1635 L 414.0434 119.5157 L 413.9685 118.878 L 413.8515 118.2515 L 413.7035 117.625 L 413.5011 117.0193 L 413.267 116.4135 L 413.0022 115.8293 L 412.6941 115.2666 L 412.3542 114.7243 L 411.9826 114.2048 L 411.5676 113.7047 L 411.1322 113.2373 L 410.665 112.8022 L 410.1763 112.3872 L 409.6556 112.0051 L 409.1134 111.6652 L 408.5507 111.3574 L 407.9665 111.081 L 407.0103 110.6878 L 406.0227 110.3374 L 405.0349 110.0183 L 404.0357 109.7419 L 403.016 109.5089 L 401.9964 109.3065 L 400.9654 109.1577 L 399.9353 109.0417 L 398.8942 108.9666 L 397.853 108.9349 L 396.8116 108.9451 L 395.7704 108.9986 L 394.7304 109.0837 L 393.6994 109.2214 L 392.6795 109.3918 L 391.6599 109.6146 L 390.6505 109.8703 L 389.6515 110.1569 L 388.6637 110.4968 L 387.686 110.8684 L 386.7619 111.3469 L 385.8489 111.8665 L 384.967 112.4189 L 384.1064 113.0145 L 383.2673 113.6409 L 382.449 114.3003 L 381.6737 114.9902 L 380.9089 115.7236 L 380.1869 116.4773 L 379.4958 117.2534 L 378.8376 118.0709 L 378.2103 118.9108 L 378.2319 118.9417 C 372.2729 113.2024 365.7648 108.0292 358.7933 103.5091 L 359.5564 103.8149 L 360.3736 104.0913 L 361.1923 104.3357 L 362.031 104.5267 L 362.8814 104.6857 L 363.7304 104.7915 L 364.5808 104.8552 L 365.4414 104.8768 L 366.3017 104.8552 L 367.1623 104.7813 L 368.0124 104.6755 L 368.8515 104.5154 L 369.6905 104.3243 L 370.5191 104.08 L 371.3261 103.8036 L 372.1229 103.4853 L 372.8993 103.1136 L 373.6633 102.71 L 374.3966 102.2746 L 375.1081 101.7961 L 375.7992 101.2859 L 376.4574 100.7334 L 377.0949 100.1492 L 377.7009 99.5443 L 378.2636 98.8963 L 378.8059 98.2267 L 379.3048 97.5254 L 379.5914 96.9627 L 379.8471 96.3785 L 380.0699 95.783 L 380.2394 95.1667 L 380.378 94.5507 L 380.463 93.9141 L 380.5155 93.2868 L 380.5268 92.6501 L 380.4837 92.0123 L 380.4097 91.3745 L 380.2927 90.7483 L 380.1336 90.1321 L 379.9312 89.5365 L 379.6982 88.9421 L 379.4105 88.3681 L 379.1027 87.8156 L 378.7421 87.2847 L 378.3591 86.7855 L 377.9453 86.2968 L 377.4883 85.8501 L 377.0099 85.4362 L 376.5107 85.0431 L 375.9797 84.693 L 375.4276 84.3735 L 374.8535 84.0974 L 374.2588 83.8539 L 373.6531 83.6515 L 373.0368 83.4925 L 372.4209 83.3754 L 371.7831 83.3014 L 371.018 83.2584 L 370.2532 83.2584 L 369.489 83.3014 L 368.7242 83.3856 L 367.9693 83.5129 L 367.2258 83.6836 L 366.4826 83.8857 L 365.7594 84.1405 L 365.0479 84.4268 L 364.358 84.7565 L 363.6884 85.1179 L 363.0302 85.5102 L 362.4026 85.9467 L 361.7969 86.4241 L 361.2127 86.9233 L 360.6715 87.4551 L 360.1508 88.0177 L 359.6621 88.6022 L 359.0357 89.2182 L 358.3766 89.8024 L 357.6966 90.3549 L 356.9953 90.8756 L 356.2631 91.3643 L 355.5187 91.8213 L 354.7434 92.2351 L 353.958 92.6172 L 353.1498 92.9684 L 352.3323 93.2763 L 351.4924 93.5527 L 350.6536 93.7868 L 349.793 93.9776 L 348.9324 94.1369 L 348.0616 94.254 L 347.19 94.3279 L 346.3191 94.3597 L 345.437 94.3597 L 344.5662 94.3064 L 343.6954 94.2222 L 342.8237 94.1051 L 341.9631 93.9345 L 341.1139 93.7332 L 340.2638 93.4889 L 339.6827 93.2876 C 334.423 91.0205 328.9847 89.0898 323.3914 87.5279 L 323.8506 87.5928 L 324.4564 87.6461 L 325.0621 87.6563 L 325.6671 87.6246 L 326.2728 87.5506 L 326.8675 87.4233 L 327.4526 87.2631 L 328.0258 87.0619 L 328.5782 86.8277 L 329.1202 86.5412 L 329.6409 86.233 L 329.9491 85.9887 L 330.2252 85.7126 L 330.4695 85.4045 L 330.6821 85.0748 L 330.8516 84.7247 L 330.9902 84.3633 L 331.096 83.9917 L 331.1493 83.5982 L 331.17 83.2164 L 331.1493 82.823 L 331.0858 82.4409 L 330.9789 82.0579 L 330.8414 81.6965 L 330.6606 81.3566 L 330.448 81.0281 L 330.1934 80.7301 L 329.917 80.454 L 329.6092 80.2097 L 329.2795 79.9971 L 328.9294 79.8276 L 328.5677 79.689 L 328.1848 79.5934 L 327.803 79.5402 L 327.4095 79.53 L 327.0277 79.5515 L 326.6342 79.615 L 326.2626 79.7207 L 325.9012 79.8698 L 325.5613 80.0504 L 325.2317 80.2732 L 324.9349 80.528 L 324.669 80.8041 L 324.4246 81.1123 L 324.2222 81.4419 L 324.0527 81.792 L 323.9141 82.1648 L 323.8299 82.5469 L 323.7129 82.9718 L 323.5538 83.3856 L 323.373 83.7791 L 323.1388 84.162 L 322.8843 84.5121 L 322.5864 84.852 L 322.268 85.1499 L 321.9282 85.426 L 321.5565 85.659 L 321.1631 85.8614 L 320.7484 86.0309 L 320.3345 86.1593 L 319.8991 86.2549 L 319.4637 86.2968 L 319.017 86.307 L 318.5816 86.2753 L 318.4237 86.2486 C 308.8287 83.9781 298.823 82.7697 288.5338 82.7697 C 217.1109 82.7697 159.2104 140.6699 159.2104 212.0927 C 159.2104 283.5159 217.1109 341.4149 288.5338 341.4149 Z M 330.8034 93.0711 L 330.8301 93.1059 L 331.4738 93.3072 C 331.251 93.227 331.0262 93.1501 330.8034 93.0711 Z M 331.5518 93.335 L 332.1692 93.5742 L 332.8169 93.8608 L 333.4433 94.1791 L 334.0491 94.5405 L 334.6336 94.9439 L 335.1963 95.3691 L 335.7281 95.8363 L 336.2374 96.3252 L 336.7159 96.8457 L 337.1615 97.3981 L 337.5765 97.9722 L 337.9584 98.5669 L 338.2982 99.1828 L 338.6064 99.8206 L 338.8723 100.4788 L 339.1064 101.1484 L 339.2974 101.8281 L 339.4463 102.5181 L 339.5625 103.2092 L 339.626 103.9207 L 339.658 104.6222 L 339.6475 105.3337 L 339.5942 106.035 L 339.4987 106.7363 L 339.3612 107.4266 L 339.1804 108.1176 L 338.9678 108.786 L 338.7132 109.4451 L 338.4258 110.0931 L 338.097 110.7196 L 337.7254 111.3253 L 337.4059 111.6867 L 337.0445 112.0269 L 336.6626 112.3347 L 336.259 112.5998 L 335.8236 112.8441 L 335.3769 113.0352 L 334.9097 113.1953 L 334.4426 113.3124 L 333.9539 113.3864 L 333.4649 113.4181 L 332.9762 113.4079 L 332.4875 113.3544 L 332.0099 113.2591 L 331.5314 113.1202 L 331.0744 112.9397 L 330.639 112.7271 L 330.2252 112.4725 L 329.8218 112.1859 L 329.4601 111.8563 L 329.1202 111.5062 L 328.8124 111.1232 L 328.536 110.7196 L 328.3019 110.2842 L 328.1006 109.8374 L 327.9404 109.3703 L 327.8245 108.9031 L 327.7494 108.4141 L 327.7074 107.9254 L 327.7176 107.4368 L 327.7709 106.9481 L 327.8665 106.4704 L 328.0042 105.9919 L 328.1746 105.5361 L 328.3872 105.0996 L 328.6417 104.6755 L 328.8861 103.9527 L 329.0771 103.2194 L 329.2373 102.4758 L 329.3535 101.7224 L 329.4283 100.9675 L 329.4601 100.2025 L 329.449 99.4374 L 329.3966 98.6837 L 329.3011 97.9189 L 329.1625 97.1753 L 328.9816 96.431 L 328.7588 95.709 L 328.5043 94.987 L 328.1961 94.2857 L 327.8563 93.606 L 327.4846 92.9466 L 327.0696 92.3091 L 326.6127 91.6929 L 326.6827 91.6846 C 314.6457 87.8732 301.8305 85.8132 288.5338 85.8132 C 218.7907 85.8132 162.2543 142.3508 162.2543 212.0927 C 162.2543 281.8349 218.7907 338.3714 288.5338 338.3714 C 358.276 338.3714 414.8135 281.8349 414.8135 212.0927 C 414.8135 211.0147 414.8002 209.9407 414.7724 208.8694 L 414.5845 210.5362 L 414.3515 212.2254 L 414.0856 213.9146 L 413.7775 215.5935 L 413.4271 217.2609 L 413.2148 218.2272 L 412.9486 219.1731 L 412.651 220.1187 L 412.3111 221.0428 L 411.929 221.9559 L 411.5041 222.8482 L 411.0469 223.7199 L 410.548 224.5805 L 410.0057 225.409 L 409.4328 226.2161 L 408.8271 226.9913 L 408.1893 227.7462 L 407.8176 228.2031 L 407.4242 228.6272 L 407.0001 229.0317 L 406.5432 229.4036 L 406.0647 229.7435 L 405.5655 230.0403 L 405.0349 230.3062 L 404.5028 230.5403 L 403.9401 230.7209 L 403.3774 230.8689 L 402.8034 230.9757 L 402.2192 231.0497 L 401.6347 231.0712 L 401.0505 231.0497 L 400.4663 230.9859 L 400.0833 230.9233 L 400.0946 230.9326 L 399.2443 232.7173 L 398.3632 234.4813 L 397.4494 236.2229 L 396.4935 237.9552 L 395.4943 239.6546 L 394.4747 241.3437 L 393.4128 243.0113 L 392.3079 244.6472 L 391.1814 246.2624 L 390.0129 247.856 L 388.8227 249.4281 L 387.5905 250.9685 L 386.3265 252.4873 L 385.0305 253.9752 L 383.7027 255.4404 L 382.3534 256.875 L 382.1193 257.5548 L 381.8546 258.213 L 381.5566 258.8508 L 381.2168 259.4781 L 380.8451 260.083 L 380.4415 260.6672 L 379.9947 261.2197 L 379.5276 261.762 L 379.0389 262.2722 L 378.508 262.7495 L 377.9657 263.1963 L 377.3928 263.6101 L 376.7973 264.0036 L 376.181 264.3537 L 375.6719 264.598 L 375.1512 264.8004 L 374.6203 264.9696 L 374.0669 265.0972 L 373.5153 265.1822 L 372.9518 265.2245 L 372.3993 265.2245 L 371.8366 265.1936 L 371.2842 265.1083 L 370.7317 264.9912 L 370.2008 264.8208 L 369.6687 264.6298 L 369.2971 264.365 L 368.9368 264.0671 L 368.6071 263.7488 L 368.3092 263.3975 L 368.0444 263.0259 L 367.8103 262.6223 L 367.6079 262.2076 L 367.4489 261.7722 L 367.3318 261.3368 L 367.2476 260.8798 L 367.2043 260.4229 L 367.2043 259.9557 L 367.2363 259.4988 L 367.3213 259.0418 L 367.4384 258.5959 L 367.5875 258.171 L 367.7888 257.7458 L 368.0124 257.3535 L 368.2774 256.9706 L 368.5751 256.6205 L 368.9048 256.2908 L 369.2551 255.9929 L 369.6267 255.7281 L 370.211 255.4087 L 370.8065 255.1119 L 371.4228 254.8562 L 372.0489 254.6436 L 372.6867 254.4639 L 373.3347 254.3151 L 373.9929 254.2195 L 374.6523 254.1447 L 375.3207 254.124 L 375.9797 254.1342 L 376.6484 254.1878 L 377.3075 254.272 L 377.9555 254.3992 L 378.6035 254.5696 L 379.23 254.772 L 379.8471 255.0163 L 380.452 255.2927 L 381.0362 255.615 C 382.4603 254.1447 383.8323 252.629 385.1527 251.0702 L 385.1476 251.0742 L 384.8397 251.3721 L 384.4996 251.638 L 384.1486 251.8824 L 383.7665 252.0734 L 383.3629 252.2327 L 382.9482 252.36 L 382.5241 252.4348 L 382.0989 252.4771 L 381.6635 252.4669 L 381.2383 252.4133 L 380.8134 252.328 L 380.4097 252.2007 L 380.0061 252.0303 L 379.6345 251.8189 L 379.2832 251.5745 L 378.9536 251.2981 L 378.6457 250.9787 L 378.3807 250.6501 L 378.1466 250.2887 L 377.9555 249.8956 L 377.7965 249.5021 L 377.6794 249.0883 L 377.6054 248.6633 L 377.5737 248.2279 L 377.5839 247.8027 L 377.6258 247.3673 L 377.7749 246.8251 L 377.9657 246.2944 L 378.1998 245.7737 L 378.466 245.2745 L 378.7625 244.796 L 379.0922 244.3391 L 379.4641 243.9037 L 379.8573 243.5003 L 380.2825 243.1284 L 380.9622 242.5759 L 381.6522 242.0657 L 382.375 241.5779 L 383.1185 241.1209 L 383.8836 240.7062 L 384.6691 240.3241 L 385.4659 239.9729 L 386.274 239.6761 L 387.1018 239.4 L 387.9417 239.1761 L 388.7909 238.985 L 389.6515 238.826 L 390.5118 238.7203 L 391.3838 238.6451 L 392.2444 238.6134 L 393.1149 238.6247 L 393.9857 238.6772 L 393.9559 238.7324 C 395.5601 236.039 397.0284 233.2604 398.3519 230.4079 L 398.3777 230.4037 L 398.2144 230.3379 L 397.6937 230.072 L 397.1948 229.7752 L 396.7058 229.4456 L 396.2489 229.074 L 395.824 228.6808 L 395.4203 228.2556 L 395.0487 227.7995 L 394.719 227.3108 L 394.4211 226.8108 L 394.1563 226.29 L 393.9335 225.7489 L 393.7527 225.1862 L 393.6039 224.6224 L 393.497 224.0484 L 393.4868 223.3162 L 393.5288 222.5832 L 393.6039 221.8603 L 393.7209 221.1384 L 393.88 220.4269 L 394.0812 219.7256 L 394.3154 219.0345 L 394.5917 218.3658 L 394.9101 217.7067 L 395.261 217.0701 L 395.6431 216.4538 L 396.0683 215.8583 L 396.5253 215.2854 L 397.014 214.7431 L 397.5347 214.2224 L 398.0758 213.7439 L 398.6498 213.2881 L 399.2443 212.8731 L 399.8605 212.4913 L 400.5094 212.1401 L 401.1676 211.8319 L 401.8371 211.5558 L 402.5375 211.3226 L 403.2388 211.1306 L 404.0039 211.0351 L 404.7585 210.8976 L 404.8716 210.8699 C 405.4187 208.3028 405.8532 205.7182 406.1767 203.1253 L 406.0647 203.6735 L 405.9057 204.2898 L 405.6931 204.9058 L 405.4382 205.5005 L 405.1508 206.0745 L 404.8223 206.6165 L 404.4504 207.1474 L 404.047 207.6466 L 403.6105 208.1251 L 403.1433 208.5605 L 402.6441 208.9641 L 402.1237 209.3357 L 401.5712 209.6756 L 400.9972 209.9622 L 400.498 210.1643 L 399.9889 210.3236 L 399.4682 210.4509 L 398.9361 210.5362 L 398.4055 210.568 L 397.8632 210.568 L 397.3323 210.5257 L 396.8014 210.4407 L 396.2809 210.3134 L 395.7704 210.1428 L 395.2715 209.9415 L 394.7939 209.6972 L 394.3369 209.4211 L 393.9015 209.1016 L 393.497 208.7617 L 393.1149 208.3796 L 392.7648 207.9763 L 392.4456 207.5409 L 392.1591 207.0839 L 391.9147 206.6054 L 391.7021 206.1164 L 391.5317 205.6073 L 391.4042 205.0866 L 391.3087 204.5557 L 391.2667 204.0239 L 391.2565 203.493 L 391.2883 202.9507 L 391.3724 202.4198 L 391.4895 201.8993 L 391.6485 201.0818 L 391.8611 200.2737 L 392.1055 199.4666 L 392.3932 198.6812 L 392.7217 197.9161 L 393.0831 197.1612 L 393.4868 196.4282 L 393.9222 195.7164 L 394.4007 195.0265 L 394.8996 194.3569 L 395.4419 193.7194 L 396.0147 193.1145 L 396.6103 192.5303 L 397.2368 191.9778 L 397.8961 191.4571 L 398.5758 190.9684 L 399.2763 190.5216 L 400.0093 190.0964 L 400.7529 189.7248 L 401.5074 189.3747 L 402.0599 189.0984 L 402.5693 188.7687 L 403.0693 188.4073 L 403.5365 188.0152 L 403.9719 187.59 L 404.3755 187.1229 L 404.7471 186.6339 L 405.087 186.1237 L 405.3849 185.5928 L 405.6395 185.0301 L 405.8521 184.4561 L 406.0329 183.8718 L 406.1602 183.2771 L 406.2455 182.6714 L 406.2875 182.0551 L 406.2875 181.4391 L 406.2484 180.9924 C 405.6222 175.6814 404.5294 170.4169 402.9749 165.2601 L 402.899 165.5147 L 402.6546 166.3013 L 402.368 167.0766 L 402.0497 167.8303 L 401.6769 168.5747 L 401.2846 169.2862 L 400.8492 169.9866 L 400.3707 170.6675 L 400.0411 171.1233 L 399.6808 171.5485 L 399.2873 171.9519 L 398.8624 172.3246 L 398.4055 172.6637 L 397.938 172.9726 L 397.4391 173.2377 L 396.9286 173.4718 L 396.398 173.6629 L 395.8557 173.8219 L 395.3032 173.939 L 394.7508 174.0129 L 394.1881 174.0447 L 393.6254 174.0345 L 393.0616 173.9812 L 392.4989 173.8857 L 391.9567 173.7581 L 391.4155 173.5889 L 390.8951 173.3763 L 390.3959 173.1206 L 389.9072 172.834 L 389.4389 172.5157 L 388.8125 171.9417 L 388.218 171.3359 L 387.644 170.7094 L 387.1131 170.0512 L 386.6139 169.3602 L 386.1456 168.6487 L 385.7216 167.9153 L 385.3284 167.1616 L 384.9772 166.3855 L 384.6589 165.6 L 384.393 164.7927 L 384.1597 163.9743 L 383.9791 163.1458 L 383.8303 162.3067 L 383.7243 161.4668 L 383.671 160.6175 L 383.6494 159.7674 L 383.6812 158.9182 L 383.745 158.0678 L 383.8836 157.1754 L 384.0531 156.2729 L 384.2552 155.3907 L 384.51 154.5089 L 384.8077 153.6483 L 385.1374 152.799 L 385.509 151.9705 L 385.9228 151.1521 L 386.3696 150.3655 L 386.8472 149.5902 L 387.3677 148.8365 L 387.9201 148.1136 L 388.5043 147.4123 L 389.1206 146.7437 L 389.7686 146.1061 L 390.4381 145.4899 L 391.1394 144.9159 L 391.8725 144.3634 L 392.6262 143.854 L 393.4015 143.3755 L 394.1983 142.9401 L 394.2221 142.9699 C 386.6644 131.4374 377.2738 121.212 366.4587 112.7177 L 366.4826 112.7384 L 367.1087 113.4819 L 367.7148 114.2467 L 368.2774 115.0435 L 368.8092 115.861 L 369.2971 116.7111 L 369.754 117.5717 L 370.169 118.4539 L 370.5406 119.3564 L 370.9227 120.1431 L 371.2626 120.9603 L 371.5705 121.7789 L 371.8468 122.6177 L 372.0708 123.4568 L 372.2615 124.3171 L 372.4209 125.1777 L 372.5379 126.0496 L 372.6119 126.9204 L 372.6437 127.8023 L 372.6437 128.6731 L 372.6014 129.5552 L 372.5164 130.426 L 372.3571 131.0842 L 372.155 131.7217 L 371.9103 132.3493 L 371.6342 132.9653 L 371.3159 133.5498 L 370.9658 134.1227 L 370.5826 134.6751 L 370.1577 135.1956 L 369.7121 135.6948 L 369.2231 136.1631 L 368.7129 136.5985 L 368.1819 137.0123 L 367.6192 137.3839 L 367.035 137.7136 L 366.429 138.0112 L 365.813 138.2763 L 365.1752 138.5002 L 364.5386 138.6799 L 363.8795 138.8186 L 363.21 138.9243 L 362.5415 138.9776 L 361.872 138.9991 L 361.2025 138.9776 L 360.5329 138.9141 L 359.8645 138.8081 L 359.2052 138.6592 L 358.5674 138.4682 L 357.9307 138.2445 L 357.3147 137.9795 L 356.6874 137.6181 L 356.0927 137.2246 L 355.5085 136.7997 L 354.956 136.3428 L 354.4251 135.8549 L 353.9251 135.3342 L 353.4474 134.7922 L 353.0123 134.2295 L 352.6087 133.634 L 352.2257 133.0177 L 351.8858 132.3811 L 351.5879 131.7331 L 351.3229 131.0635 L 351.089 130.3838 L 350.898 129.6825 L 350.7491 128.9812 L 350.6431 128.2697 L 350.5683 127.5579 L 350.5365 126.8351 L 350.5476 126.1131 L 350.6 125.4016 L 350.6854 124.689 L 350.8126 123.9772 L 350.983 123.2759 L 351.1843 122.586 L 351.4289 121.9164 L 351.7163 121.248 L 352.0346 120.6102 L 352.4383 119.8451 L 352.8099 119.0588 L 353.1498 118.2617 L 353.4372 117.4547 L 353.7023 116.6261 L 353.9149 115.7871 L 354.0954 114.9483 L 354.234 114.0877 L 354.3398 113.2373 L 354.3934 112.3668 L 354.4138 111.5062 L 354.3934 110.6456 L 354.3398 109.7853 L 354.234 108.9247 L 354.0954 108.0641 L 353.9149 107.2253 L 353.6921 106.3851 L 353.4372 105.5679 L 353.1396 104.7495 L 352.8099 103.9527 L 352.4383 103.1774 L 352.5707 103.242 C 345.928 99.3277 338.9012 95.9975 331.5518 93.335 Z M 414.4694 202.7679 L 414.4357 202.8552 L 414.1276 203.5565 L 413.7775 204.2362 L 413.384 204.9058 L 412.9486 205.5436 L 412.4917 206.1595 L 411.9928 206.744 L 411.4505 207.3067 L 410.8878 207.8271 L 410.3036 208.3161 L 409.6772 208.7731 L 409.0394 209.198 L 408.3701 209.5801 L 407.6799 209.9302 L 406.9684 210.2383 L 406.8575 210.2774 L 406.8615 210.2712 L 407.255 208.2841 L 407.5948 206.2871 L 407.8925 204.2898 L 408.147 202.2823 L 408.3596 200.2737 L 408.5189 198.256 L 408.6462 196.2371 L 408.7315 194.2081 L 408.7633 192.1893 L 408.7633 190.1614 L 408.71 188.1425 L 408.6247 186.1135 L 408.4872 184.0946 L 408.3063 182.0767 L 408.0835 180.0683 L 407.8176 178.0608 L 407.5095 176.0635 L 407.1594 174.0662 L 406.766 172.0803 L 406.3306 170.1037 L 405.8521 168.1381 L 405.3317 166.1842 L 404.7687 164.2402 L 404.1629 162.3067 L 403.5263 160.3947 L 403.4832 159.8105 L 403.2244 159.1954 C 409.4235 172.6132 413.3409 187.3035 414.4694 202.7679 Z M 300.2462 86.4139 L 300.9577 86.4343 L 301.659 86.4992 L 302.3595 86.6049 L 303.0608 86.7538 L 303.7405 86.9448 L 304.41 87.179 L 305.0694 87.4551 L 305.6956 87.7632 L 306.322 88.1133 L 306.9062 88.4954 L 307.4803 88.9206 L 308.0225 89.3775 L 308.5421 89.8662 L 309.0206 90.3869 L 309.4673 90.9289 L 309.8914 91.5021 L 310.2744 92.1078 L 310.6142 92.7238 L 310.9224 93.3616 L 311.1883 94.0198 L 311.4111 94.6894 L 311.6021 95.3793 L 311.7399 96.0704 L 311.8363 96.7717 L 311.9 97.4835 L 311.9102 98.1848 L 311.8785 98.8963 L 311.8147 99.5978 L 311.6976 100.298 L 311.5386 100.9891 L 311.3362 101.6688 L 311.1032 102.3384 L 310.8586 102.7624 L 310.5825 103.1774 L 310.2744 103.5592 L 309.9345 103.9105 L 309.5731 104.2288 L 309.1694 104.5154 L 308.7547 104.7711 L 308.3091 104.9837 L 307.8522 105.1634 L 307.3847 105.302 L 306.9062 105.3975 L 306.4175 105.4508 L 305.9289 105.461 L 305.441 105.4191 L 304.9523 105.3439 L 304.4738 105.228 L 304.0169 105.0792 L 303.5608 104.8768 L 303.1359 104.6438 L 302.7322 104.3674 L 302.3493 104.0593 L 301.9878 103.7299 L 301.6695 103.358 L 301.3716 102.9648 L 301.117 102.5396 L 300.9044 102.1042 L 300.7236 101.6473 L 300.5861 101.1801 L 300.4906 100.7016 L 300.4373 100.2138 L 300.4268 99.7251 L 300.4588 99.2361 L 300.5223 98.7474 L 300.6386 98.2689 L 300.7987 97.8018 L 301.1386 97.2924 L 301.4464 96.7606 L 301.7228 96.2082 L 301.9558 95.6452 L 302.148 95.061 L 302.307 94.4552 L 302.423 93.8608 L 302.4981 93.2445 L 302.5298 92.6286 L 302.5196 92.0123 L 302.4663 91.3961 L 302.381 90.7903 L 302.2435 90.1959 L 302.0729 89.6003 L 301.8603 89.0271 L 301.6057 88.4636 L 301.3191 87.9111 L 301 87.3916 L 300.6386 86.8912 Z M 407.8709 253.4012 L 409.1669 249.4281 L 408.5609 249.152 L 407.9347 248.9179 L 407.2867 248.7166 L 406.6387 248.5678 L 405.9794 248.4507 L 404.7687 248.2812 L 403.558 248.1642 L 402.3363 248.0893 L 401.1143 248.0686 L 399.882 248.0791 L 398.6714 248.1426 L 397.4494 248.2495 L 396.2387 248.4085 L 395.0271 248.5996 L 394.4211 248.7166 L 393.8267 248.8654 L 393.2527 249.0565 L 392.6795 249.2895 L 392.1273 249.5452 L 391.585 249.842 L 391.0757 250.1819 L 390.5756 250.5436 L 390.1085 250.9367 L 389.6629 251.3619 L 389.2479 251.8075 L 388.8658 252.286 L 388.5148 252.7852 L 388.186 253.3158 L 387.8986 253.8581 L 387.644 254.4106 L 387.4314 254.9846 L 387.3257 255.5042 L 387.2506 256.036 L 387.2302 256.5669 L 387.2404 257.0978 L 387.2937 257.6299 L 387.3892 258.1495 L 387.527 258.6699 L 387.7075 259.17 L 387.9201 259.6589 L 388.1747 260.1261 L 388.4726 260.5717 L 388.7909 260.9969 L 389.1421 261.39 L 389.5353 261.762 L 389.9492 262.0913 L 390.3846 262.3995 L 390.8415 262.6645 L 391.32 262.8986 L 391.8192 263.0894 L 392.3286 263.2385 L 392.849 263.3556 L 393.3811 263.4191 L 393.912 263.4511 L 394.4426 263.4398 L 394.9736 263.3873 L 395.4943 263.2918 L 396.0147 263.1532 L 396.8867 262.8451 L 397.7359 262.5052 L 398.586 262.1234 L 399.4044 261.7084 L 400.2117 261.2514 L 400.7548 260.9186 C 397.2317 267.6991 393.2855 273.5708 388.2909 279.2585 L 387.7826 279.0221 L 386.996 278.7143 L 386.189 278.4379 L 385.3602 278.2151 L 384.5316 278.0345 L 383.4904 277.8321 L 382.4388 277.6728 L 381.3874 277.556 L 380.3244 277.482 L 379.273 277.439 L 378.2103 277.45 L 377.1485 277.5025 L 376.0858 277.5991 L 375.0341 277.7264 L 373.9929 277.907 L 372.9518 278.1187 L 371.9217 278.3744 L 370.902 278.6822 L 370.3918 278.9473 L 369.8926 279.2563 L 369.4141 279.5961 L 368.9572 279.968 L 368.5433 280.3714 L 368.14 280.8068 L 367.7783 281.2637 L 367.4489 281.7414 L 367.1623 282.2516 L 366.9075 282.7723 L 366.6838 283.3248 L 366.5041 283.8773 L 366.3655 284.44 L 366.27 285.0242 L 366.2062 285.5982 L 366.196 286.1824 L 366.2167 286.7669 L 366.2802 287.3511 L 366.387 287.924 L 366.5358 288.498 L 366.7269 289.0505 L 367.0135 289.4757 L 367.3318 289.8689 L 367.6725 290.2408 L 368.0546 290.5909 L 368.458 290.9092 L 368.8832 291.1853 L 369.3288 291.441 L 369.7858 291.6536 L 370.2643 291.8333 L 370.7532 291.9719 L 371.2626 292.0776 L 371.7626 292.1414 L 372.272 292.163 L 372.7823 292.1414 L 373.2917 292.089 L 373.8019 291.9934 L 374.2906 291.8662 L 374.7682 291.6958 L 375.2365 291.4832 L 375.6923 291.2491 L 376.1175 290.9625 L 376.5212 290.6544 C 372.9917 293.5514 369.6052 295.9047 365.6642 298.2759 L 365.1117 297.7849 L 364.5272 297.3291 L 363.9112 296.9039 L 363.2848 296.5107 L 362.6257 296.1595 L 361.957 295.8412 L 361.266 295.5648 L 360.5647 295.3205 L 359.8532 295.1192 L 359.1198 294.9591 L 358.3877 294.8431 L 357.6546 294.768 L 356.9111 294.726 L 356.1667 294.7363 L 355.4232 294.7793 L 354.6901 294.8635 L 353.958 294.9908 L 353.2351 295.1614 L 352.5233 295.3738 L 351.822 295.6184 L 351.1423 295.9047 L 350.4728 296.2344 L 350.0906 296.4572 L 349.7397 296.7231 L 349.4109 297.021 L 349.1133 297.3393 L 348.8369 297.6894 L 348.6027 298.0613 L 348.412 298.4545 L 348.2425 298.8694 L 348.1254 299.2935 L 348.0401 299.7298 L 347.9868 300.1652 L 347.9868 300.6006 L 348.0299 301.0462 L 348.1038 301.4827 L 348.2209 301.9068 L 348.3799 302.3215 L 348.571 302.7149 L 348.8051 303.0866 L 349.071 303.448 L 349.3576 303.7663 L 349.6873 304.0744 L 350.0374 304.3403 L 350.409 304.5736 L 350.8024 304.7757 L 351.2163 304.935 L 351.896 305.094 L 352.5871 305.2213 L 353.2884 305.3169 L 353.9897 305.3599 L 354.7015 305.3704 L 355.4016 305.3489 L 356.1029 305.2749 L 356.8045 305.1794 L 357.4843 305.0306 L 358.1753 304.8497 L 358.8437 304.6371 L 359.4926 304.3826 L 360.1406 304.096 L 360.7671 303.7663 L 361.3728 303.4151 L 361.957 303.0231 L 362.5197 302.5979 L 363.062 302.1511 L 363.5714 301.6624 L 364.0601 301.1632 L 364.5272 300.6221 L 364.9524 300.0696 L 366.6838 299.0387 L 368.4047 297.9771 L 370.0939 296.8824 L 371.7626 295.7457 L 373.3982 294.5874 L 375.0126 293.3768 L 376.6062 292.1445 L 378.1681 290.8689 L 379.7084 289.5732 L 381.2168 288.2353 L 382.6933 286.8644 L 384.1486 285.4627 L 385.5728 284.0383 L 386.9538 282.5731 L 388.3136 281.0852 L 389.641 279.5664 L 390.937 278.0263 L 392.201 276.4542 L 393.423 274.8492 L 394.6133 273.2247 L 395.7704 271.5775 L 396.8969 269.9099 L 397.9803 268.2105 L 399.0317 266.4896 L 400.0411 264.7468 L 401.0187 262.9837 L 401.953 261.199 L 402.8567 259.3928 L 403.2071 259.0951 L 403.8982 258.4789 L 404.5564 257.8311 L 405.1826 257.1616 L 405.7886 256.4498 L 406.3521 255.7281 L 406.8933 254.9733 L 407.3924 254.198 Z M 318.7613 242.2689 C 318.1329 242.8452 317.4922 243.3915 316.838 243.9079 C 309.306 249.8924 300.2956 252.8847 289.7382 252.8847 C 280.929 252.8847 272.9268 250.6317 265.7982 246.1269 L 265.7203 246.0767 L 293.855 181.2634 Z " fill="#1a1a18" fill-rule="evenodd"/>
</g>
</g>
</g>
</svg>
