<?xml version="1.0" encoding="UTF-8"?>
<svg version="1.1" xmlns="http://www.w3.org/2000/svg" width="512" height="512">
<path d="M0 0 C1.28318115 0.25740967 1.28318115 0.25740967 2.59228516 0.52001953 C16.7963382 3.45309489 36.07976157 7.54992064 45 20 C47.56615848 24.77733744 49.65258486 29.76893078 51.7578125 34.76171875 C58.97289054 51.86702302 68.9022905 67.6130084 81.05078125 81.6484375 C83 84 83 84 84.29296875 86.2265625 C85.73161728 88.56378439 86.5726639 89.67234103 89 91 C92.61777618 91.2933332 96.03098967 91.34910919 99.64453125 91.09448242 C105.83778193 90.68993683 110.13277378 92.01314693 115.328125 95.61328125 C115.96234375 96.17402344 116.5965625 96.73476562 117.25 97.3125 C117.89453125 97.86550781 118.5390625 98.41851562 119.203125 98.98828125 C123.62769813 103.94187943 124.05093695 107.68221356 123.75 114.125 C124.2585712 118.62253835 124.60588393 120.80829283 128.06494141 123.76513672 C138.48167848 130.50259471 150.50455224 135.02493719 162.30859375 138.71875 C172.93896283 142.40844424 172.93896283 142.40844424 176 147 C176.9607709 156.96908398 175.44723048 166.92240558 173.875 176.75 C173.76329468 177.46443268 173.65158936 178.17886536 173.53649902 178.91494751 C163.46948018 243.01273955 139.33901455 305.29640288 97 355 C96.29101562 355.84046875 95.58203125 356.6809375 94.8515625 357.546875 C82.86132613 371.2906242 69.79496926 384.30520359 55 395 C54.41379883 395.43103027 53.82759766 395.86206055 53.22363281 396.30615234 C51.42534751 397.62842095 49.62084447 398.94152711 47.8125 400.25 C47.23121338 400.67144287 46.64992676 401.09288574 46.05102539 401.52709961 C43.40382662 403.41378545 40.83522205 405.08757134 37.95703125 406.6171875 C28.30776152 411.7545918 24.58276974 420.14531066 21.27685547 430.19921875 C20.00272709 434.42670651 18.94227599 438.68536781 18 443 C18.68288086 443.06993164 19.36576172 443.13986328 20.06933594 443.21191406 C81.21002647 449.58201616 81.21002647 449.58201616 97 466 C99.61431497 469.92147246 100.40381207 473.2594621 99.70703125 477.98828125 C97.5974123 485.2799172 91.90474274 488.80358221 85.5625 492.37109375 C52.60444465 508.49843486 10.54206103 509.10108364 -25.44921875 509.203125 C-26.98545865 509.2101039 -28.52169827 509.21714486 -30.05793762 509.22424316 C-34.93446211 509.24350313 -39.81094162 509.2484175 -44.6875 509.25 C-45.51633698 509.25058914 -46.34517395 509.25117828 -47.1991272 509.25178528 C-71.57368642 509.2640252 -95.78655235 509.14011984 -120 506 C-121.22267578 505.8448291 -122.44535156 505.6896582 -123.70507812 505.52978516 C-173.34408143 499.02312264 -173.34408143 499.02312264 -188.5 484.625 C-190.84459855 480.52195254 -192.36085039 476.74037108 -191.73046875 471.953125 C-189.60326599 464.87159839 -184.47915088 460.96626233 -178.2421875 457.44140625 C-158.43228284 448.07185675 -131.91020955 443 -110 443 C-111.10920093 437.92102734 -112.44705775 432.95802771 -114 428 C-114.31493408 426.98268799 -114.31493408 426.98268799 -114.63623047 425.94482422 C-119.19068723 412.32114419 -128.57481022 406.77237973 -140.45751953 399.58886719 C-150.89617537 393.06545906 -160.17365663 384.50980229 -169 376 C-169.69174316 375.33548828 -170.38348633 374.67097656 -171.09619141 373.98632812 C-180.89041207 364.52751153 -189.91490807 354.95356515 -198 344 C-198.73992187 343.05511719 -199.47984375 342.11023438 -200.2421875 341.13671875 C-240.92590733 288.79805427 -266.63085867 215.94313888 -268.59375 149.77734375 C-267.73567797 145.76359893 -266.25947029 144.48379888 -263 142 C-259.78864115 140.55503767 -256.47556445 139.51127052 -253.125 138.4375 C-232.75000523 132.55305122 -232.75000523 132.55305122 -216.89160156 120.12353516 C-215.88618279 116.87344156 -215.88310289 113.8097431 -215.9453125 110.4296875 C-216.03629614 104.72371334 -213.37881968 101.49053221 -209.5859375 97.51953125 C-205.81978766 94.08568875 -201.18217852 91.12304424 -195.98583984 90.92211914 C-194.5884951 91.01416671 -193.19217505 91.12312233 -191.79736328 91.24780273 C-186.8418492 91.68053306 -182.59501991 91.99001236 -178.28125 89.3125 C-175.89264913 86.6815773 -173.96552376 83.96104878 -172 81 C-171.10857184 79.81142912 -170.20836821 78.62940338 -169.30078125 77.453125 C-157.2302632 61.69358849 -146.23131399 43.88222464 -139.375 25.1875 C-135.80604669 16.37155919 -129.12738691 12.1411698 -120.6875 8.3125 C-111.42298305 4.40040097 -101.838979 1.97372625 -92 0 C-91.21028809 -0.16516113 -90.42057617 -0.33032227 -89.60693359 -0.50048828 C-61.56868107 -6.07126909 -27.96696513 -5.84903882 0 0 Z M-93.625 18.75 C-94.40496338 18.91628906 -95.18492676 19.08257813 -95.98852539 19.25390625 C-105.05665351 21.30699766 -115.69807774 23.81549894 -122 31 C-107.11358211 46.96661148 -74.69884041 47.15215881 -54.3671875 47.93554688 C-27.21947675 48.67471722 6.85844352 48.41847432 30 32 C28.72539792 28.17619377 27.65413482 27.9335594 24.125 26.125 C12.37731749 20.48947689 -1.10615157 17.52865213 -14 16 C-14.6811084 15.91387451 -15.3622168 15.82774902 -16.06396484 15.73901367 C-24.96886168 14.75879419 -33.89317571 14.8139098 -42.84033203 14.81469727 C-45.59814137 14.81252119 -48.35554285 14.79433993 -51.11328125 14.77539062 C-65.48149215 14.72916573 -79.54187119 15.7352925 -93.625 18.75 Z M-130 49 C-130.52207031 50.0415625 -131.04414063 51.083125 -131.58203125 52.15625 C-138.28953877 65.30822554 -146.26073333 77.20058303 -155.1875 88.9375 C-155.59178223 89.47205811 -155.99606445 90.00661621 -156.41259766 90.55737305 C-158.97529698 93.87579339 -161.77307118 96.68792155 -164.8125 99.5625 C-166.84876297 101.55564114 -166.84876297 101.55564114 -168 104 C-167.76418365 108.3180594 -166.62062977 112.00919919 -165 116 C-163.76636719 116.12955078 -163.76636719 116.12955078 -162.5078125 116.26171875 C-152.74463907 117.49057083 -143.63964193 119.66520876 -137.31640625 127.75390625 C-134.51929111 132.52643208 -132.77417808 137.77952025 -131 143 C-129.96101563 142.95359375 -128.92203125 142.9071875 -127.8515625 142.859375 C-117.14545303 142.5212738 -109.13531589 143.29881011 -100.625 150.4375 C-94.7071645 156.0701386 -91.7870964 161.36513486 -89 169 C-87.96101563 168.90460938 -86.92203125 168.80921875 -85.8515625 168.7109375 C-73.61331901 167.6908389 -63.69797078 168.21726595 -53 175 C-50.77277093 176.8856023 -48.93971721 178.80505684 -47 181 C-45.68 180.34 -44.36 179.68 -43 179 C-43 178.34 -43 177.68 -43 177 C-42.43796875 176.7215625 -41.8759375 176.443125 -41.296875 176.15625 C-39.75716811 175.38115945 -38.22583595 174.58921908 -36.703125 173.78125 C-25.20965309 167.77829015 -15.66785548 167.39138343 -3 169 C-2.58041016 167.948125 -2.58041016 167.948125 -2.15234375 166.875 C2.4775272 155.91813499 8.60225327 148.46994413 19.72265625 143.875 C23.7108129 142.81022397 27.27398108 142.77859268 31.375 142.875 C32.11105469 142.88402344 32.84710938 142.89304687 33.60546875 142.90234375 C35.4037888 142.92569856 37.20193911 142.96156164 39 143 C39.43699219 141.71416016 39.43699219 141.71416016 39.8828125 140.40234375 C43.15002545 131.28907996 45.97068516 125.01170671 54.5625 120.1875 C60.45859607 117.45099129 66.58386551 116.67379469 73 116 C74.80647587 111.98794313 75.92741613 108.42243121 76 104 C74.10719951 100.85004097 71.82303501 98.70632263 69.1640625 96.171875 C65.37763506 92.54014132 62.4079336 88.38981353 59.375 84.125 C58.81989746 83.34664795 58.26479492 82.5682959 57.69287109 81.76635742 C50.30253158 71.29250782 43.94275042 60.34693908 38 49 C34.26461472 50.1787455 30.85454295 51.52617946 27.375 53.3125 C-13.5418676 72.05684881 -72.67002764 69.44546619 -114.51953125 55.3046875 C-118.57648389 53.78389942 -122.38679678 52.00727296 -126.1796875 49.91796875 C-127.95785018 48.84990777 -127.95785018 48.84990777 -130 49 Z M-197.5 111.0625 C-199.46601181 114.91260646 -199.21718491 116.89200092 -198 121 C-195.73498601 123.60057161 -194.42150709 123.94731161 -191 124.375 C-187.60916757 123.95114595 -186.28159605 123.53510672 -184 121 C-182.80691838 117.34121638 -182.67332256 115.70002308 -184.3125 112.1875 C-185.81578588 109.91084374 -185.81578588 109.91084374 -188 109 C-192.19255763 108.53416026 -194.18332813 108.32624571 -197.5 111.0625 Z M92 112 C90.80691838 115.65878362 90.67332256 117.29997692 92.3125 120.8125 C94.45561984 123.59061831 95.34331079 123.91244144 98.8125 124.375 C102.15633275 124.23748209 102.15633275 124.23748209 104.9375 121.9375 C107.34717255 119.10375271 107.34717255 119.10375271 107 115.375 C105.97127846 111.39228236 105.97127846 111.39228236 103 109 C98.4113853 108.49942385 95.14364319 108.37271939 92 112 Z M-171.875 139.6875 C-173.68094696 143.39972431 -173.63596946 146.96014854 -173 151 C-171.02818509 154.62813944 -169.25305203 155.85198844 -165.6875 157.9375 C-161.19348281 159.23238631 -159.24854664 158.88824295 -155 157 C-151.21962664 153.71271882 -149.17048438 151.7730376 -148.6875 146.75 C-149.05929283 142.28848602 -150.13867772 140.40265352 -153 137 C-155.74018076 134.8366994 -157.48652151 134.07647552 -160.9375 133.5625 C-165.62018167 134.23145452 -168.42903183 136.58612865 -171.875 139.6875 Z M58.125 140.3125 C56.64882757 143.83891192 56.53381105 146.20389 57 150 C58.9294554 154.01326724 60.49259129 155.69364002 64.3125 158 C68.79308371 159.21507355 70.77947573 158.87578856 75 157 C77.85554017 154.56272118 77.85554017 154.56272118 80 152 C80.33 151.67 80.66 151.34 81 151 C81.55175544 147.25594522 81.8173257 143.55618814 80.0234375 140.140625 C76.79593104 136.14089306 74.13864797 134.27895408 69.125 133.625 C64.17886897 134.21853572 61.22223006 136.49258292 58.125 140.3125 Z M-214.375 140.625 C-225.87907605 147.29176673 -237.49672327 152.52547711 -250 157 C-242.75966017 227.03900544 -217.38041698 298.34498971 -168.5078125 350.28125 C-166.73384026 352.20443486 -165.05799361 354.11953578 -163.40625 356.140625 C-161.47539876 358.4350781 -159.66006007 360.33739466 -157.375 362.25 C-155.08617944 364.19125892 -152.84865787 366.14372424 -150.671875 368.2109375 C-138.22217724 380.01141789 -123.93109709 389.62439492 -109 398 C-108.35804688 398.36544922 -107.71609375 398.73089844 -107.0546875 399.10742188 C-98.48537344 403.95496522 -89.72584046 408.11775106 -80.625 411.875 C-79.73417725 412.24431641 -78.84335449 412.61363281 -77.92553711 412.99414062 C-69.0721658 416.55549306 -60.20720874 419.38759907 -50.625 419.8125 C-49.53022339 419.86277344 -49.53022339 419.86277344 -48.41333008 419.9140625 C-10.77292587 421.16695672 31.66136009 393.37346907 58.1875 368.5625 C59.21712745 367.58181919 60.24459034 366.59885909 61.26953125 365.61328125 C63.5796871 363.40227372 65.93248845 361.31101451 68.375 359.25 C71.61755395 356.44068916 74.40985244 353.40451183 77.17578125 350.12890625 C78.40919972 348.68947784 79.67913567 347.28067879 80.98046875 345.90234375 C104.3819321 321.05160944 121.74526408 288.6331339 134 257 C134.3295166 256.15679199 134.6590332 255.31358398 134.99853516 254.44482422 C147.13645433 223.10449632 154.54657301 190.40652482 158 157 C157.09628662 156.66959717 157.09628662 156.66959717 156.17431641 156.33251953 C144.49348165 152.02065322 133.28234538 147.52609542 122.58642578 141.10009766 C119.02334451 138.98144054 117.24600733 138 113 138 C111.28527356 138.71177324 109.57160551 139.42793017 107.8828125 140.19921875 C104.99224382 141.42860999 102.03353861 142.19518364 99 143 C98.97421875 143.68964844 98.9484375 144.37929687 98.921875 145.08984375 C98.31633708 155.12250605 95.49511246 163.06476341 88 170 C81.14936722 174.87448871 73.37588408 176.440836 65 176 C64.87044922 177.01707031 64.87044922 177.01707031 64.73828125 178.0546875 C63.32060964 187.44513616 60.49302249 195.75581459 53 202 C52.52175781 202.42925781 52.04351562 202.85851562 51.55078125 203.30078125 C43.20158128 210.15399866 32.34394527 210.49518887 22 210 C21.85304688 210.76183594 21.70609375 211.52367187 21.5546875 212.30859375 C19.09758852 223.6197218 14.02150905 232.04855699 4.3125 238.625 C-4.70047639 243.96539909 -14.40851853 245.41517501 -24.703125 243.49609375 C-33.05487232 241.25444378 -39.05427219 237.12060215 -45 231 C-45.66 231 -46.32 231 -47 231 C-47.70125 231.721875 -48.4025 232.44375 -49.125 233.1875 C-56.40170817 240.6763571 -65.66767563 244.0703289 -76 244.375 C-86.46416013 244.06644143 -94.73291717 240.51464243 -102.625 233.75 C-109.05437754 226.30545759 -112.12872627 219.70107695 -114 210 C-115.09054688 210.05220703 -115.09054688 210.05220703 -116.203125 210.10546875 C-127.54492947 210.41082502 -138.34129483 208.90278646 -147 201 C-153.30141286 193.53780056 -156.14246527 185.60438892 -157 176 C-157.7734375 175.96261719 -158.546875 175.92523438 -159.34375 175.88671875 C-170.20336855 175.20127253 -177.51576742 173.2659191 -185 165 C-188.59966832 159.96259433 -189.68192122 154.55752471 -190.60546875 148.515625 C-190.95378839 146.29465618 -191.41713251 144.16928076 -192 142 C-192.59167969 141.89042969 -193.18335938 141.78085938 -193.79296875 141.66796875 C-198.45721971 140.732075 -201.99069883 139.67286745 -206 137 C-209.22385485 137 -211.66567635 139.02019679 -214.375 140.625 Z M-136.3125 166.625 C-139.62230808 171.28324841 -139.72892733 175.38971665 -139 181 C-137.3477665 185.09287718 -135.08158412 188.06863589 -131.75 190.9375 C-127.10949255 192.73042333 -122.65799749 193.79084785 -117.78125 192.33984375 C-112.49868633 189.90552803 -109.61289047 186.76495509 -106.6875 181.75 C-105.33826317 176.35305269 -106.19696338 171.63695927 -108.625 166.6875 C-112.12537199 162.72655275 -115.264159 160.42490082 -120.46484375 159.6171875 C-127.62162723 159.29432509 -131.52915032 161.19525172 -136.3125 166.625 Z M16.0625 167.25 C14.26957667 171.89050745 13.20915215 176.34200251 14.66015625 181.21875 C17.09447197 186.50131367 20.23504491 189.38710953 25.25 192.3125 C30.64694731 193.66173683 35.36304073 192.80303662 40.3125 190.375 C44.27344725 186.87462801 46.57509918 183.735841 47.3828125 178.53515625 C47.63913135 172.8534217 46.86959475 169.39251296 43 165 C38.08382174 160.66908106 35.13977249 159.58686193 28.67578125 159.65234375 C23.29664433 160.35123891 19.53400854 163.21857073 16.0625 167.25 Z M-89.875 190.4375 C-90.57625 191.283125 -91.2775 192.12875 -92 193 C-92.556875 193.61875 -93.11375 194.2375 -93.6875 194.875 C-96.71664827 199.7793353 -97.40918058 204.50985011 -96.47265625 210.0859375 C-94.93930116 216.295392 -91.48773105 220.70228877 -86.1796875 224.19921875 C-81.58457851 226.76707377 -77.2714601 228.11179886 -72 227 C-64.36800789 224.18699989 -60.06571876 220.91011051 -56.25 213.6875 C-54.08214889 207.29233923 -54.29554544 202.97252142 -56.9375 196.875 C-60.2190349 190.87579958 -64.71340879 187.30075871 -71.265625 185.3125 C-78.27384516 184.13629522 -84.48012257 185.86358218 -89.875 190.4375 Z M-32 192 C-35.14811038 196.89609432 -37.91199902 201.96561379 -37.48828125 207.921875 C-36.18472288 213.4698194 -33.59018276 218.36797032 -29.625 222.4375 C-23.94025037 225.82127954 -18.70583961 228.24003856 -12 227 C-5.19953817 224.8175262 -0.67372734 221.58716283 2.9375 215.390625 C5.76736298 209.02343329 5.49103824 203.45462437 3.01171875 197.00390625 C1.49109994 193.9920242 -0.39559506 192.11986448 -3 190 C-3.886875 189.2575 -4.77375 188.515 -5.6875 187.75 C-14.70290548 182.98714428 -24.94540321 184.56407365 -32 192 Z M-95 425 C-94.86722656 425.72445313 -94.73445313 426.44890625 -94.59765625 427.1953125 C-94.33275391 428.64550781 -94.33275391 428.64550781 -94.0625 430.125 C-93.80146484 431.55199219 -93.80146484 431.55199219 -93.53515625 433.0078125 C-93.35855469 433.99523437 -93.18195313 434.98265625 -93 436 C-92.81824219 436.89460938 -92.63648438 437.78921875 -92.44921875 438.7109375 C-90.65982371 451.81242115 -91.42559892 465.29513397 -95 478 C-95.33643681 479.33255363 -95.67117559 480.66554753 -96 482 C-104.74315444 483.71467689 -104.74315444 483.71467689 -109.1875 481.1875 C-111.8233893 476.55197054 -110.9285277 473.08479453 -110 468 C-109.66132506 465.66743599 -109.3269086 463.33424213 -109 461 C-140.18786637 464.58742363 -140.18786637 464.58742363 -170 474 C-170 474.66 -170 475.32 -170 476 C-163.51074784 478.76883919 -157.1361731 480.96662047 -150.25 482.5 C-149.31953857 482.70794189 -148.38907715 482.91588379 -147.43041992 483.13012695 C-139.44030195 484.83490243 -131.4055706 486.08342059 -123.3125 487.1875 C-121.63559082 487.41953125 -121.63559082 487.41953125 -119.92480469 487.65625 C-96.84050651 490.61990536 -73.77814817 491.33130911 -50.5390625 491.26074219 C-46.75801995 491.2493486 -42.9772591 491.25613714 -39.19622612 491.26762009 C-20.7139575 491.31522169 -2.41330242 490.78458169 16 489 C16.78201782 488.92438843 17.56403564 488.84877686 18.36975098 488.77087402 C22.63349942 488.34423054 26.87940339 487.82859358 31.125 487.25 C32.9668689 487.00165405 32.9668689 487.00165405 34.84594727 486.74829102 C49.32710561 484.68061999 64.65846995 482.25326235 78 476 C78 475.34 78 474.68 78 474 C59.18379104 466.11611357 38.45654349 461.7296492 18 462 C18.13019531 463.09699219 18.26039063 464.19398438 18.39453125 465.32421875 C18.53526907 466.7785096 18.67451354 468.23294551 18.8125 469.6875 C18.90208984 470.40873047 18.99167969 471.12996094 19.08398438 471.87304688 C19.44056627 475.98312244 19.24593147 477.67920164 16.703125 480.99609375 C13.44652251 483.41030918 11.9667105 483.50638857 8 483 C6.66349472 482.67962127 5.32937568 482.34878244 4 482 C3.51526322 480.31409158 3.03751074 478.62617455 2.5625 476.9375 C2.29566406 475.99777344 2.02882813 475.05804688 1.75390625 474.08984375 C0.07494155 467.20869825 -0.225104 460.48428311 -0.25 453.4375 C-0.25394775 452.46965576 -0.25789551 451.50181152 -0.26196289 450.50463867 C-0.20567162 443.52974366 0.60608817 437.32784481 2.44140625 430.58203125 C3.25067567 427.90256998 3.25067567 427.90256998 2 425 C1.42145264 425.2266333 0.84290527 425.4532666 0.24682617 425.68676758 C-31.13947888 437.93713816 -55.28545225 440.21215842 -86.98144531 427.77294922 C-89.62616407 426.76022794 -92.30399126 425.86565137 -95 425 Z " fill="#000000" transform="translate(302,3)"/>
</svg>
